<?xml version="1.0" encoding="UTF-8"?>
<svg version="1.1" viewBox="0 0 696.31 528.34" xmlns="http://www.w3.org/2000/svg">
<g transform="translate(44.088 1.0308)">
<g transform="translate(2.3679 -1.0308)">
<ellipse cx="185.4" cy="281.19" rx="194.45" ry="193.04" fill="#c6b8eb" fill-opacity=".63312" stroke-width="0"/>
<ellipse cx="205.34" cy="278.38" rx="251.79" ry="249.96" fill="#c6b8eb" fill-opacity=".57305" stroke-width="0"/>
<path d="m538.75 355.26c2.8875-0.202 7.6125-0.202 10.5 0s0.525 0.36728-5.25 0.36728-8.1375-0.16528-5.25-0.36728zm22.25-0.16529c0-0.68939-0.54105-0.90414-1.25-0.49616-0.6875 0.39564-0.91846 0.35316-0.51325-0.0944 0.40521-0.44755-0.16717-2.2763-1.272-4.0639-1.8051-2.9206-1.8841-3.7161-0.77934-7.8466l1.2294-4.5964h9.7926c5.3859 0 9.7926 0.18117 9.7926 0.4026s-3.15 1.3594-7 2.5288c-4.9013 1.4887-7 2.6106-7 3.742 0 1.3911 0.93861 1.5272 6.75 0.97832 3.7125-0.35062 8.9376-0.64069 11.611-0.6446l4.8613-7e-3 -0.66259-3.5319c-0.61784-3.2934-0.50716-3.5001 1.6387-3.0612 1.2657 0.25888 6.4154 0.73576 11.444 1.0597 17.466 1.1253 33.069 4.9 32.113 7.7688-1.3259 3.9777-23.06 7.5148-52.005 8.4632-14.387 0.47141-18.75 0.33152-18.75-0.60111zm-39.238-0.80473c1.2439-0.23919 3.0439-0.23011 4 0.0202 0.95609 0.25029-0.0617 0.446-2.2617 0.4349-2.2-0.0111-2.9822-0.21589-1.7383-0.45508zm-9.0117-0.95502c0.6875-0.27741 1.8125-0.27741 2.5 0s0.125 0.50439-1.25 0.50439-1.9375-0.22698-1.25-0.50439zm-6.9375-1.0208c0.72187-0.28887 1.5844-0.25335 1.9167 0.0789 0.33229 0.33229-0.25834 0.56864-1.3125 0.52522-1.165-0.048-1.4019-0.28494-0.60417-0.60416zm50.06-1.0669c-1.2439-1.5861-1.2085-1.6214 0.37756-0.37756 1.6658 1.3064 2.1955 2.1276 1.3724 2.1276-0.20765 0-0.99515-0.7875-1.75-1.75zm-55.06 0.0669c0.72187-0.28887 1.5844-0.25335 1.9167 0.0789 0.33229 0.33229-0.25834 0.56864-1.3125 0.52522-1.165-0.048-1.4019-0.28494-0.60417-0.60416zm-430.04-3.0504c2.352-0.21124 5.952-0.20827 8 7e-3 2.048 0.21487 0.12357 0.38771-4.2764 0.38408-4.4-4e-3 -6.0756-0.17944-3.7236-0.39069zm24.224-0.12048c0-0.46968-1.1035-2.0447-2.4523-3.5-1.3487-1.4553-2.2232-2.646-1.9433-2.646s-0.19156-1.0001-1.0477-2.2225c-0.85619-1.2224-1.5567-3.6974-1.5567-5.5v-3.2775h22v11.693l9.9548 1.6533c11.985 1.9905 14.045 2.0443 14.045 0.36694 0-0.70748-3.15-2.3786-7-3.7137-6.903-2.3937-7-2.4767-7-5.9909v-3.5635l10.25 0.73072c5.6375 0.40189 12.162 1.0042 14.5 1.3385l4.25 0.60778v5.8934c0 5.8667-0.0147 5.896-3.25 6.4571-12.451 2.1596-50.75 3.4221-50.75 1.6729zm-39.75-0.83535c0.9625-0.25152 2.5375-0.25152 3.5 0 0.9625 0.25153 0.175 0.45733-1.75 0.45733s-2.7125-0.2058-1.75-0.45733zm-9.5-0.97295c0.6875-0.27741 1.8125-0.27741 2.5 0s0.125 0.50439-1.25 0.50439-1.9375-0.22698-1.25-0.50439zm188.5-0.0767c3.1625-0.19845 8.3375-0.19845 11.5 0s0.575 0.36082-5.75 0.36082-8.9125-0.16237-5.75-0.36082zm21.422-0.67317c-0.37593-0.97965-1.1559-1.4069-1.8195-0.99671-0.70922 0.43832-0.89213 0.28193-0.46969-0.40159 0.75614-1.2235-4.0764-9.1896-5.5748-9.1896-0.50938 0-0.71448-0.34246-0.45579-0.76103 0.25869-0.41856-0.0837-1.5187-0.76081-2.4447-0.84853-1.1604-3.0741-1.7975-7.1613-2.0499-4.509-0.27843-3.7133-0.41151 3.3198-0.55528 9.1794-0.18764 9.25-0.17053 9.25 2.2395 0 5.0204 6.0102 7.4276 9.345 3.7427 0.91025-1.0058 1.655-2.8058 1.655-4 0-2.0892 0.39306-2.1713 10.406-2.1713 9.9702 0 10.384 0.0852 9.8748 2.0329-0.67247 2.5715 2.2973 5.9671 5.2188 5.9671 2.9224 0 5.8913-3.3956 5.2185-5.9685-0.29613-1.1324-0.11699-1.7778 0.40406-1.4558 0.51482 0.31817 5.8654 1.224 11.89 2.0129 12.128 1.5882 20.487 4.204 20.487 6.4113 0 4.0163-21.999 7.7236-51.585 8.6933-16.966 0.55607-18.642 0.4598-19.243-1.1055zm-215.86-0.27096c0.72188-0.28887 1.5844-0.25335 1.9167 0.0789 0.33229 0.33229-0.25833 0.56864-1.3125 0.52522-1.1649-0.048-1.4019-0.28494-0.60417-0.60416zm177.44-6e-3c0.9625-0.25152 2.5375-0.25152 3.5 0 0.9625 0.25153 0.175 0.45733-1.75 0.45733s-2.7125-0.2058-1.75-0.45733zm-61.25-4.8915c0-4.9821 0.8224-5.3561 6.5321-2.9704 5.2586 2.1972 4.2786 4.4396-2.7821 6.3664l-3.75 1.0234zm51.75 3.9183c0.6875-0.27741 1.8125-0.27741 2.5 0s0.125 0.50439-1.25 0.50439-1.9375-0.22698-1.25-0.50439zm-6.9375-1.0208c0.72187-0.28887 1.5844-0.25335 1.9167 0.0789 0.33229 0.33229-0.25834 0.56864-1.3125 0.52522-1.165-0.048-1.4019-0.28494-0.60417-0.60416zm211.92-0.0386c1.7752-0.22091 4.9252-0.22454 7-8e-3 2.0748 0.21648 0.6223 0.39722-3.2277 0.40166-3.85 4e-3 -5.5475-0.17268-3.7723-0.39359zm26.272-1.0974c-0.825-1.0162-1.6232-2.4048-1.7739-3.0858-0.43664-1.9742-3.3717-6.095-4.3411-6.095-0.48674 0-0.78939-0.3375-0.67254-0.75s-0.33646-1.7391-1.0074-2.948c-0.96358-1.7363-2.321-2.2751-6.4624-2.565-2.8835-0.20187 0.81998-0.45027 8.2299-0.55201 12.45-0.17094 13.304-0.0668 11.25 1.3717-2.4485 1.715-3.0116 6.2542-1.0225 8.2433 2.0653 2.0653 6.6042 1.4284 8.3035-1.165 1.6919-2.5822 0.7885-6.8825-1.6889-8.0389-0.72304-0.33751 2.917-0.38471 8.089-0.10488 5.172 0.27984 11.224 0.50879 13.45 0.50879 3.1472 0 3.7797 0.26667 2.8464 1.2-1.6828 1.6828-1.4936 5.3635 0.37143 7.2286 3.6928 3.6928 10.072-0.0162 8.7931-5.1124-0.47009-1.873-0.17791-2.3162 1.5271-2.3162 1.9403 0 2.1084 0.54869 2.1084 6.8834 0 6.6931-0.076 6.9005-2.75 7.4996-1.5125 0.33891-11.975 0.84778-23.25 1.1308-19.082 0.47901-20.604 0.38681-22-1.333zm-243.19 0.13599c0.72187-0.28887 1.5844-0.25335 1.9167 0.0789 0.33229 0.33229-0.25834 0.56864-1.3125 0.52522-1.165-0.048-1.4019-0.28494-0.60417-0.60416zm203.44-6e-3c0.9625-0.25152 2.5375-0.25152 3.5 0 0.9625 0.25153 0.175 0.45733-1.75 0.45733s-2.7125-0.2058-1.75-0.45733zm-9.5-0.97295c0.6875-0.27741 1.8125-0.27741 2.5 0s0.125 0.50439-1.25 0.50439-1.9375-0.22698-1.25-0.50439zm116.06-0.0208c0.72187-0.28887 1.5844-0.25335 1.9167 0.0789 0.33229 0.33229-0.25834 0.56864-1.3125 0.52522-1.165-0.048-1.4019-0.28494-0.60417-0.60416zm-317.83-1.8411c-0.69572-0.83829-1.0713-1.7178-0.83459-1.9545 0.2367-0.23669 0.97964 0.44918 1.651 1.5242 1.4518 2.3247 0.96763 2.58-0.81639 0.43035zm195.83 0.84106c0.72187-0.28887 1.5844-0.25335 1.9167 0.0789 0.33229 0.33229-0.25834 0.56864-1.3125 0.52522-1.165-0.048-1.4019-0.28494-0.60417-0.60416zm109.19-5.2346v-6.1731l3.75 0.6704c7.1452 1.2774 13.737 3.8912 14.05 5.5718 0.33641 1.8016-5.7311 4.2411-13.55 5.448l-4.25 0.65602zm19.269 5.2245c0.97297-0.25354 2.323-0.23687 3 0.0371 0.67703 0.27393-0.11903 0.48137-1.769 0.46099-1.65-0.0204-2.2039-0.2445-1.231-0.49804zm9.4926-1.0143c1.2439-0.23919 3.0439-0.23011 4 0.0202 0.95609 0.25029-0.0617 0.446-2.2617 0.4349-2.2-0.0111-2.9822-0.21589-1.7383-0.45508zm14.988-1.025c2.3375-0.21053 6.1625-0.21053 8.5 0 2.3375 0.21054 0.425 0.3828-4.25 0.3828s-6.5875-0.17226-4.25-0.3828zm-495.94-3.9509c0.72188-0.28887 1.5844-0.25335 1.9167 0.0789 0.33229 0.33229-0.25833 0.56864-1.3125 0.52522-1.1649-0.048-1.4019-0.28494-0.60417-0.60416zm6.4565-1.0099c0.97297-0.25354 2.323-0.23687 3 0.0371 0.67703 0.27393-0.11903 0.48137-1.769 0.46099-1.65-0.0204-2.2039-0.2445-1.231-0.49804zm9.4926-1.0143c1.2439-0.23919 3.0439-0.23011 4 0.0202 0.95609 0.25029-0.06166 0.446-2.2617 0.4349-2.2-0.0111-2.9823-0.21589-1.7383-0.45508zm144.05 0.0242c0.72187-0.28887 1.5844-0.25335 1.9167 0.0789 0.33229 0.33229-0.25834 0.56864-1.3125 0.52522-1.165-0.048-1.4019-0.28494-0.60417-0.60416zm-129.55-1.0345c1.5201-0.22986 3.7701-0.22371 5 0.0136 1.2299 0.23736-0.01375 0.42542-2.7638 0.41792-2.75-8e-3 -3.7563-0.20172-2.2362-0.43157zm527.99 0.0283c0.9625-0.25152 2.5375-0.25152 3.5 0 0.9625 0.25153 0.175 0.45733-1.75 0.45733s-2.7125-0.2058-1.75-0.45733zm12.102-0.30398c-1.1812-0.47659-2.4682-1.3852-2.8601-2.0192-0.39429-0.63799 0.6763-0.43455 2.3977 0.4556 1.7105 0.88456 3.1101 1.8217 3.1101 2.0826 0 0.56344 0.0682 0.57681-2.6477-0.51899zm16.398-0.59118c1.7875-0.78171 3.25-1.9022 3.25-2.4899 0-0.5877 0.68229-1.7508 1.5162-2.5848 1.2915-1.2915 2.5181-1.3472 8.2761-0.37599 11.848 1.9984 12.073 3.9826 0.67685 5.967-3.3731 0.5874-8.5711 1.0313-11.551 0.98643l-5.4181-0.08158zm-588.25-0.47716c4.95-0.47383 10.252-1.006 11.781-1.1827s4.0768-1.544 5.6602-3.0384c2.154-2.033 3.8964-2.7173 6.9195-2.7173 6.0726 0 14.139 1.9747 14.139 3.4612 0 2.4438-8.4984 3.6572-28 3.998-15.567 0.272-17.685 0.16696-10.5-0.52079zm553.31 0.37849c0.72187-0.28887 1.5844-0.25335 1.9167 0.0789 0.33229 0.33229-0.25834 0.56864-1.3125 0.52522-1.165-0.048-1.4019-0.28494-0.60417-0.60416zm-569-1c0.72188-0.28887 1.5844-0.25335 1.9167 0.0789 0.33229 0.33229-0.25833 0.56864-1.3125 0.52522-1.1649-0.048-1.4019-0.28494-0.60417-0.60416zm291.45-1.0345c1.5201-0.22986 3.7701-0.22371 5 0.0136 1.2299 0.23736-0.0138 0.42542-2.7638 0.41792-2.75-8e-3 -3.7563-0.20172-2.2362-0.43157zm16.062-1.8005c-1.1959-1.3651-1.973-2.4819-1.727-2.4819s-0.32122-1.173-1.2606-2.6067c-1.5598-2.3806-1.5686-2.6848-0.1012-3.506 0.88374-0.49457 1.9027-2.2465 2.2644-3.8933 0.61061-2.7801 0.97662-2.994 5.122-2.994 2.9914 0 4.4108 0.41242 4.3021 1.25-0.43439 3.3452 0.35165 5.8277 3.5017 11.059l3.427 5.6912-6.677-0.0181c-5.8464-0.0158-6.9475-0.32683-8.8514-2.5zm-295.77-0.0137c-2.496-1.8879-1.5702-1.8764 2.0768 0.0256 1.5754 0.82161 2.1893 1.4823 1.3643 1.4682s-2.3735-0.68634-3.4411-1.4938zm271.25 0.84869c0.72187-0.28887 1.5844-0.25335 1.9167 0.0789 0.33229 0.33229-0.25834 0.56864-1.3125 0.52522-1.165-0.048-1.4019-0.28494-0.60417-0.60416zm96 0c0.72187-0.28887 1.5844-0.25335 1.9167 0.0789 0.33229 0.33229-0.25834 0.56864-1.3125 0.52522-1.165-0.048-1.4019-0.28494-0.60417-0.60416zm202.06-1.0669c-1.2439-1.5861-1.2085-1.6214 0.37756-0.37756 1.6658 1.3064 2.1955 2.1276 1.3724 2.1276-0.20765 0-0.99515-0.7875-1.75-1.75zm-251.54-4.9189c-1.6894-3.2228-3.2859-7.2032-3.5478-8.8454-0.26194-1.6422-0.29498-2.4595-0.0734-1.8163 0.22155 0.64317 3.5073 1.693 7.3016 2.333 8.0054 1.3503 15.342 4.7232 15.813 7.2695 0.3798 2.0546-5.9187 5.2393-12.417 6.2784l-4.0048 0.64039zm239.48 3.9858c0.72187-0.28887 1.5844-0.25335 1.9167 0.0789 0.33229 0.33229-0.25834 0.56864-1.3125 0.52522-1.165-0.048-1.4019-0.28494-0.60417-0.60416zm6.4565-1.0099c0.97297-0.25354 2.323-0.23687 3 0.0371 0.67703 0.27393-0.11903 0.48137-1.769 0.46099-1.65-0.0204-2.2039-0.2445-1.231-0.49804zm-574.52-0.96929c0.6875-0.27741 1.8125-0.27741 2.5 0s0.125 0.50439-1.25 0.50439-1.9375-0.22698-1.25-0.50439zm407-6.0614c1.7875-0.22182 4.7125-0.22182 6.5 0 1.7875 0.22183 0.325 0.40333-3.25 0.40333s-5.0375-0.1815-3.25-0.40333zm117.41-18.276c0-1.375 0.22698-1.9375 0.50439-1.25s0.27741 1.8125 0 2.5-0.50439 0.125-0.50439-1.25zm-296.16-16.073 1-0.42653c0 5.775-0.225 10.5-0.5 10.5s-0.5-4.5331-0.5-10.073zm326.16-29.927c0-1.375 0.22698-1.9375 0.50439-1.25s0.27741 1.8125 0 2.5-0.50439 0.125-0.50439-1.25zm-28.963-18.5c0.0204-1.65 0.2445-2.2039 0.49804-1.231s0.23687 2.323-0.0371 3c-0.27393 0.67703-0.48137-0.11903-0.46099-1.769zm-128.19-29.43c0-4.318-0.2795-4.9843-2.25-5.3638-1.9292-0.37157-1.8578-0.45279 0.5-0.56955 2.6832-0.13287 2.75-3e-3 2.75 5.3638 0 3.025-0.225 5.5-0.5 5.5s-0.5-2.2187-0.5-4.9304zm187.16-1.0696c0-1.375 0.22698-1.9375 0.50439-1.25s0.27741 1.8125 0 2.5-0.50439 0.125-0.50439-1.25zm-530.86-8c0-3.025 0.18747-4.2625 0.41659-2.75 0.22912 1.5125 0.22912 3.9875 0 5.5-0.22912 1.5125-0.41659 0.275-0.41659-2.75zm150.05-5c0-4.675 0.17226-6.5875 0.3828-4.25 0.21053 2.3375 0.21053 6.1625 0 8.5-0.21054 2.3375-0.3828 0.425-0.3828-4.25zm209.68-34.349c-1.5488-6.1508-1.7891-11.377 0.0535-12.906 1.3697-1.1367 5.6203-3.6999 5.0304-1.3495-0.81416 3.244-0.92314 11.605 1.7592 11.605 1.8266 0 4.5388-4.1241 5.2514-6.4054 0.24132-0.77246 1.8437-0.97923 2.728-0.42985 1.1554 0.71774 0.94399 3.5684-0.77992 6.3577-2.2897 3.7048-8.309 8.7901-10.533 8.7901-0.84783 0-2.8421-3.0123-3.5092-5.6616zm116.12-5.901c-2.947-3.4375-9.1703-10.412-13.83-15.5-6.9503-7.5891-8.9916-9.25-11.369-9.25-1.9924 0-3.4126-0.78631-4.5469-2.5175-1.3651-2.0834-1.9081-2.3029-3.1494-1.2727-1.3115 1.0885-1.4033 0.6826-0.73099-3.2325 2.342-13.639-1.9781-22.14-12.721-25.032-13.899-3.7425-27.189 11.523-20.849 23.949 1.2771 2.5034 2.0418 5.6842 1.9088 7.9396-0.29928 5.0722 0.55122 6.1354 4.4135 5.5172 2.5299-0.40492 4.1527 0.15229 7.473 2.5658 4.9866 3.6248 7.0507 3.8211 10.624 1.0105 1.4492-1.1399 2.6724-1.9274 2.7182-1.75 0.0458 0.17742 0.19562 1.3349 0.33285 2.5721s0.49973 2.4997 0.80555 2.8056c0.30583 0.30582-0.687 3.7935-2.2063 7.7505l-2.7623 7.1944-33.848 0.54549-4.7462-4.5477c-2.6104-2.5012-4.5146-4.9224-4.2316-5.3804 0.28304-0.45797 0.0756-2.3592-0.46091-4.225-1.4412-5.0118-1.541-21.987-0.14442-24.577 2.8394-5.2652 0.43371-10.01-4.5746-9.0232-1.5111 0.29785-4.9975-0.0657-7.7475-0.808l-5-1.3495 19.5-0.13499v-99h33v80.056l27.5-0.55644 0.58762-14.5h32.912v-53.056l27.5 0.55644v136l-16.351 0.27526c-14.278 0.24034-16.196 0.46231-15.128 1.75 0.67316 0.81111 1.0563 1.4747 0.85148 1.4747-0.20484-3e-5 -2.7836-2.8125-5.7306-6.25zm-381.76 3.4912-52.122-0.25886-0.60062-6.7411c-0.33034-3.7076-0.89597-12.425-1.2569-19.371l-0.65632-12.63 16.173-0.73571c17.252-0.78478 19.084-1.3599 19.084-5.9898 0-1.6778-2.5926-4.7097-9.1316-10.679-7.5682-6.9084-8.7666-8.3902-7-8.655 2.13-0.31931 2.1316-0.34636 2.1316-36.281v-35.961l24.5 0.56156 0.26062 43.25 0.26063 43.25h31.979v-99h33v80h27v-15h34v-53h22v31.878c0 27.613-0.20796 32.05-1.5546 33.168-2.4032 1.9945-3.4867 4.5641-4.4687 10.598-0.49685 3.0528-1.1752 6.4069-1.5074 7.4537-0.46086 1.452-0.11396 1.9032 1.4633 1.9032 1.5992 0 2.0674 0.63615 2.0674 2.8089 0 1.5449-0.66069 3.6824-1.4682 4.75-0.8075 1.0676-1.4825 3.205-1.5 4.7498-0.0178 1.5738-1.3309 4.4316-2.9866 6.5-4.1799 5.2217-6.0575 10.319-6.6365 18.016-0.2762 3.6715-0.73058 8.567-1.0097 10.879l-0.50756 4.2037-6.1957 0.2963c-5.8218 0.27843-6.3007 0.12981-7.9365-2.4628-2.687-4.2588-7.5425-6.7309-13.259-6.7508-5.4704-0.019-9.5-0.83211-9.5-1.9169 0-0.38145 1.2854-2.0165 2.8565-3.6334 5.75-5.9178 8.0656-13.297 5.8422-18.618-2.1747-5.2047-11.002-13.6-15.11-14.371-5.6538-1.0607-12.693 1.8844-17.958 7.5136-4.9896 5.3343-6.5554 9.3247-4.7765 12.173 0.63046 1.0095 1.1463 2.9811 1.1463 4.3812 0 3.5738 2.6465 9.5016 5.635 12.622 2.7298 2.85 2.5075 3.2726-2.2595 4.294-2.8628 0.61341-6.5739 3.6154-7.4983 6.0657-0.2466 0.65363-18.43 0.91034-52.499 0.74115zm228.1-0.0128-18.024-0.27168 0.35709-3.7444c0.33088-3.4696-0.60669-5.0093-12.775-20.978-9.235-12.12-13.721-17.234-15.118-17.234-1.6539 0-1.813-0.32368-0.95107-1.9343 1.7123-3.1995 1.2035-5.0087-2.3528-8.3667-2.248-2.1226-4.1097-5.3862-5.5329-9.699-2.6355-7.9866-3.7919-9.5642-8.4316-11.503l-3.6475-1.524v-78.973h27v104h12v-30h33v15h6v-72.062l24.5 0.56156 0.26062 43.25 0.26063 43.25 2.2394 0.0439c1.5618 0.0306 1.0291 0.4799-1.7606 1.485-2.2 0.79257-4.0685 1.4478-4.1522 1.4561-1.0152 0.10044-2.3478 7.9184-2.3478 13.774v7.4606l5 5.4708c2.75 3.0089 5 5.8298 5 6.2686 0 0.43882-3.0375 1.5605-6.75 2.4926-7.4439 1.869-12.19 4.9232-14.341 9.228l-1.409 2.8204zm-345.48-13.666v-13.438l8.4702-2.7584c4.6586-1.5172 8.6803-2.5484 8.937-2.2917s1.1707 6.0826 2.031 12.946c0.8603 6.8638 1.809 13.942 2.1083 15.73l0.54412 3.25h-22.091zm252 11.27c0-1.1924 0.52986-5.1299 1.1775-8.75l1.1775-6.5819 1.2789 6c2.0227 9.4894 1.8244 11.5-1.1338 11.5-1.8979 0-2.5-0.52213-2.5-2.1681zm38 0.99008c0-1.7529 7.066-24.201 7.8927-25.074 0.78264-0.82696 14.106 17.612 14.909 20.634 0.32211 1.2114-0.35494 2.5393-1.9008 3.7278-1.9301 1.484-4.2154 1.8504-11.651 1.8683-6.4444 0.0155-9.25-0.33506-9.25-1.1558zm-306.13-23.572c-1.2439-1.5861-1.2085-1.6214 0.37756-0.37756 0.9625 0.75485 1.75 1.5424 1.75 1.75 0 0.82304-0.82119 0.29331-2.1276-1.3724zm-11-12c-1.2439-1.5861-1.2085-1.6214 0.37756-0.37756 1.6657 1.3064 2.1955 2.1276 1.3724 2.1276-0.20766 0-0.99516-0.7875-1.75-1.75zm27.128-61.715v-55.535h33v55.598l-3.5929 1.2992c-2.6909 0.97303-4.0662 2.3416-5.478 5.4509-1.0368 2.2834-1.895 5.0559-1.9071 6.1611s-0.92196 2.5715-2.022 3.2585-2 2.1798-2 3.3175c0 2.3652 5.1197 7.9146 7.3018 7.9146 0.80058 0 2.0211 1.3653 2.7123 3.0339 0.69117 1.6686 2.2083 3.8061 3.3713 4.75 1.1631 0.94386 2.1246 2.8411 2.1368 4.2161 0.02126 2.3991-0.19271 2.4861-5.3013 2.1545-7.3565-0.47748-8.6843 0.016287-17.221 6.404-4.125 3.0867-8.2875 6.0396-9.25 6.562-1.6571 0.89945-1.75-1.9994-1.75-54.585zm64 44.442c-5.775-1.0057-12.412-1.8619-14.75-1.9028-5.4178-0.09475-5.672-2.3037-0.80773-7.0184 2.9735-2.8821 3.9267-3.2578 7-2.759 3.2415 0.52602 3.5577 0.36594 3.5577-1.8008 0-3.6911 1.1879-3.6176 5.5536 0.34342 2.2189 2.0132 3.1996 3.0033 2.1794 2.2002-1.559-1.2272-1.9901-1.2417-2.7015-0.09068-1.9223 3.1104 2.7036 6.7396 6.2328 4.8899 1.1583-0.60704 1.6735-0.56715 1.5 0.11613-0.14535 0.57243 1.5357 2.5998 3.7357 4.5053 3.7804 3.2743 3.8628 3.4612 1.5 3.4048-1.375-0.0328-7.225-0.88246-13-1.8881zm9-7.3547c0-0.20766 0.7875-0.99516 1.75-1.75 1.5861-1.2439 1.6214-1.2085 0.37756 0.37756-1.3064 1.6657-2.1276 2.1955-2.1276 1.3724zm4-7.5c0-3.7538-2.4758-5.9309-4.9719-4.3721-2.5613 1.5996-5.5274-0.77075-5.5306-4.4197-2e-3 -2.8189 0.0213-2.8292 5.75-2.4918l5.7524 0.33882v6.9112c0 3.8011-0.225 6.9112-0.5 6.9112s-0.5-1.2949-0.5-2.8776z" fill="#f4f4f9"/>
<path d="m538 354.99c-28.31-1.182-45-4.1364-45-7.9659 0-1.1566 1.1899-2.2446 3.25-2.9716 5.8169-2.0529 21.922-4.0833 37.5-4.7278 14.662-0.60657 15.25-0.55584 15.25 1.3167 0 1.4809-1.1383 2.2479-4.75 3.2009-2.6125 0.68933-6.4375 1.7-8.5 2.246-2.1699 0.57438-3.75 1.6084-3.75 2.4541 0 1.1543 1.5239 1.4461 7.25 1.3885 3.9875-0.0402 9.5429-0.40055 12.345-0.80089 4.9747-0.71064 5.1464-0.65002 7.25 2.559 2.78 4.2409 2.7526 4.3448-1.0954 4.1524-1.7875-0.0894-10.675-0.47248-19.75-0.85138zm20-2.3637c0-0.20765-0.7875-0.99515-1.75-1.75-1.5861-1.2439-1.6214-1.2085-0.37756 0.37756 1.3064 1.6658 2.1276 2.1955 2.1276 1.3724zm-490.5-4.7045c-23.575-1.2304-39.129-4.1981-40.264-7.6822-1.0273-3.1529 16.247-6.6821 38.596-7.8854l12.332-0.66391-0.33155 2.8263c-0.30873 2.6318-0.93522 2.9998-9.1015 5.347-4.8522 1.3946-8.603 2.9941-8.3963 3.5804 0.20551 0.58286 1.002 0.98381 1.7699 0.891 0.76794-0.0928 6.6838-0.70902 13.146-1.3694 11.709-1.1964 11.75-1.2098 11.772-3.8313l0.02224-2.6306 1.9094 2.4851c1.0502 1.3668 1.7624 2.6321 1.5827 2.8117s0.75111 1.4896 2.0684 2.911 2.3951 2.9686 2.3951 3.4383c0 0.95802-5.6759 0.91095-27.5-0.22806zm166-1.9782c-26.274-1.0272-42.707-3.6689-44.901-7.2183-1.4024-2.269 0.05-3.2548 7.1569-4.8573 5.427-1.2238 7.4894-0.7098 5.4272 1.3525-1.9917 1.9917-1.3402 2.7833 2.2906 2.7833 3.6388 0 18.569-5.4516 19.63-7.1675 0.33781-0.5466 0.88423 0.35629 1.2142 2.0064 1.0776 5.3878 8.2745 5.4499 9.3483 0.0807 0.56423-2.8212 0.77833-2.9196 6.3519-2.9196 4.535 0 5.9317 0.3741 6.5338 1.75 0.42116 0.9625 0.69431 2.0875 0.60699 2.5-0.0873 0.4125 0.23144 0.75 0.70835 0.75 1.3632 0 6.2777 7.9566 5.5959 9.0598-0.33644 0.54437-0.072 0.8661 0.58763 0.71498 0.65963-0.15113 1.3727 0.18919 1.5847 0.75626 0.47434 1.2692 0.0662 1.2767-22.135 0.40876zm176.02-3.0727c-15.108-0.90893-30.368-3.1945-34.37-5.1476-6.8491-3.3428-1.2661-6.19 13.845-7.0606 5.77-0.33245 10.645-1.0667 10.833-1.6316 0.18831-0.56494 1.3174-1.0255 2.509-1.0234 1.8267 3e-3 1.6326 0.32931-1.2366 2.0785-3.382 2.0618-6.9998 5.733-7.0634 7.1677-0.0682 1.5375 6.9294 0.6725 12.989-1.6056 6.1036-2.2945 6.3142-2.3075 8.1217-0.5 0.98241 0.98241 12.316 5.8605 7.0294-8.1444h3.878c2.9852 0 4.1652 0.51795 5.1256 2.25 0.6862 1.2375 1.152 2.5875 1.0352 3s0.1858 0.75 0.67254 0.75c1.1092 0 4.4483 5.0114 4.4483 6.6762 0 0.68078 0.6 1.468 1.3333 1.7494 0.73333 0.28141 1.3333 0.97577 1.3333 1.543 0 1.1858-9.6176 1.1538-30.484-0.10155zm188.7-11.937c-7.4032-0.96174-10.217-1.7579-10.217-2.8906 0-1.2418 2.6957-2.0385 9.1978-2.7181 5.0632-0.5292 6.166-0.32911 8.0827 1.4664 1.2207 1.1436 3.5695 2.7813 5.2195 3.6395l3 1.5603-4.5-0.12065c-2.475-0.0663-7.3272-0.48791-10.783-0.9368zm-574.86-1.8842c-8.484-2.0231-8.0298-3.5657 1.5015-5.1007 5.8366-0.93996 6.3947-0.8533 9.4338 1.4647 1.7766 1.3551 5.4749 2.8918 8.2185 3.4151 4.5064 0.85939 3.9739 0.95221-5.5116 0.96078-5.775 5e-3 -11.914-0.32771-13.642-0.73982zm291.11-1.0379c-20.354-1.7851-30.169-7.0745-21.107-11.375 5.1791-2.4576 21.17-5.3007 20.103-3.5741-0.31978 0.51743-1.7022 0.94077-3.0721 0.94077-3.1793 0-7.9705 2.461-8.751 4.495-1.3963 3.6386 7.7812 4.4538 18.54 1.6467l6.6804-1.743 1.2442 2.5506c0.68429 1.4028 1.1656 2.8881 1.0696 3.3006-0.096 0.4125 0.25966 0.75 0.79031 0.75s1.4465 0.9 2.0352 2c1.0113 1.8896 0.77851 1.9921-4.2148 1.8563-2.9068-0.079-8.9001-0.46074-13.318-0.84824zm31.406-0.75805c-1.2439-1.5861-1.2085-1.6214 0.37756-0.37756 0.9625 0.75485 1.75 1.5424 1.75 1.75 0 0.82304-0.82119 0.29331-2.1276-1.3724zm52.207-27.833c1.2401-3.3906 0.16408 4.2247 4e-5 0zm181.21-52.917c8e-3 -2.75 0.20172-3.7563 0.43157-2.2362 0.22986 1.5201 0.22371 3.7701-0.0136 5-0.23736 1.2299-0.42542-0.0137-0.41792-2.7638zm-443.29-29v-4.5l69.25-0.0227c38.088-0.0125 86.197-3e-3 106.91 0.0221 30.525-2.4169 55.12-4.7e-4 86.091 3e-5 25.988-0.0204 60.638-0.0287 77-0.0184l29.75 0.01897v9h-369zm-53.163-46.471-4.2706-0.0634-0.37566-8.7688c-0.18289-4.269-2.01-14.884-3.1778-23.669-1.1678-8.7845-2.3262-16.175-2.5743-16.423-0.24808-0.24809-7.3061 1.7052-15.685 4.3407l-15.233 4.7918-11.227-11.869c-6.1749-6.5279-11.242-12.214-11.26-12.635-0.01825-0.4214 1.5018-1.4982 3.378-2.3929l3.4112-1.6267 19.557 16.03 4.5601-3.3951c9.1042-6.7783 20.295-14.888 22.898-16.593 2.6566-1.7409 12.194-2.4478 15.566-1.1538 1.3502 0.51814 1.291 0.82976-0.42802 2.25-1.9853 1.6403-1.9831 1.6687 0.44069 5.6486 1.3398 2.2 3.0317 4 3.7598 4 1.0306 0 1.3908 3.5434 1.6264 16 0.25858 13.67 0.55904 16.26 2.0631 17.785 1.6898 1.7137 1.8229 1.7137 3.3194 0 1.3963-1.599 1.4136-3.1939 0.16533-15.285-0.76651-7.425-1.8492-14.306-2.4059-15.291-1.2221-2.1619-0.27647-4.0507 1.6566-3.3089 0.76937 0.29524 1.4184 0.21341 1.4424-0.18182 0.0239-0.39524 0.41543-2.6415 0.86995-4.9917 0.67187-3.4741 0.52348-4.4501-0.79355-5.2196-2.7645-1.6153 6.323-1.1402 19.38 1.0132 6.6 1.0885 12.675 1.9657 13.5 1.9494 0.87583-0.0173-0.23183-1.5776-2.6619-3.7498l-4.1619-3.7202 6.8135-6.5463 10.005 9.0906c7.2819 6.6163 10.005 9.7332 10.005 11.452 0 4.6442-1.8275 5.2228-18.955 6.002l-16.045 0.72986v3.4857c0 1.9171 0.43403 10.978 0.96452 20.136 0.53049 9.1577 1.1379 20.138 1.3498 24.4l0.17093 9.1077-17.636-0.73977c-9.3971-0.39418-18.018-0.37707-20.013-0.58879zm34.684-86.006c-0.98375-1.087-2.248-1.6925-2.8095-1.3455-0.60708 0.3752-0.71281 0.13249-0.26085-0.59879 0.55891-0.90434 1.3936-0.6345 3.1545 1.0198 1.317 1.2372 2.3945 2.3961 2.3945 2.5752 0 0.74106-0.79064 0.21451-2.4787-1.6507zm3.5576-9.6069c0.048-1.1649 0.28494-1.4019 0.60416-0.60417 0.28887 0.72188 0.25335 1.5844-0.0789 1.9167-0.3323 0.33229-0.56864-0.25833-0.52522-1.3125z" fill="#dee3ec"/>
<path d="m391.32 319.15c-0.36348-1.455-3.1909-12.658-6.2831-24.895l-5.6222-22.25h16.265l1.719 20.75c0.94543 11.412 1.9545 22.148 2.2423 23.857 0.49478 2.9373 0.29993 3.1636-3.5683 4.1455-3.9485 1.0022-4.1148 0.94601-4.7525-1.6069zm19.675-24.082v-23.063h9.5c5.225 0 9.4967 0.1125 9.4927 0.25-4e-3 0.1375-2.8794 10.375-6.3898 22.75l-6.3825 22.5-6.2205 0.62672zm-244.41-83.374c-1.2058-0.8817-3.5506-7.8327-7.1683-21.25-2.957-10.967-5.3866-20.695-5.3992-21.618-0.05051-3.712 2.7218-4.8214 12.049-4.8214h8.9286v17.059c0 11.844 0.32655 16.857 1.0682 16.399 0.5875-0.3631 0.81765-1.313 0.51146-2.111-0.3062-0.79793-0.14816-1.1983 0.35118-0.88967 0.49935 0.30861 6.0067-6.3948 12.239-14.896l11.331-15.458 5.6786-0.0516c3.5417-0.0322 6.1951 0.46493 7.0512 1.321 0.75492 0.75493 2.8003 6.9424 4.5453 13.75 1.745 6.8076 4.4831 17.215 6.0846 23.127l2.9119 10.75h-29.195c-22.494 0-29.606-0.30074-30.987-1.3103zm26.352-17.583c1.3643-2.5492-2.1502-7.1069-5.4802-7.1069-2.5787 0-4.489 2.5728-3.7124 5 1.2766 3.9902 7.43 5.4005 9.1926 2.1069zm111.4 17.34c-0.32781-0.85428-0.6506-8.3918-0.7173-16.75-0.13442-16.844 0.95818-22.612 6.6406-35.056l3.1321-6.859-3.7091-18.141c-0.2621-8.2362-8.1652-17.581-0.10009-21.242 2.7298-1.1406 3.9184-1.2242 4.9721-0.34966 1.176 0.97598 1.1628 1.3712-0.0874 2.6214-0.80967 0.80966-1.4721 2.0662-1.4721 2.7923 0 1.5577 4.5614 2.9166 6.296 1.8756 0.91305-0.54795 0.90853-0.35728-0.0187 0.78897-1.0492 1.297-0.73443 1.4872 2.2176 1.3399 1.8921-0.0944 3.2033 0.21182 2.9137 0.68043-0.28961 0.46861 0.0792 0.85202 0.81964 0.85202 0.74042 0 1.4178 0.95035 1.5053 2.1119 0.39539 5.249 5.6657 7.2844 11.308 4.3669 1.7172-0.88797 3.9786-1.261 5.4327-0.89602 1.37 0.34386 3.7855 0.17393 5.3676-0.37762l2.8767-1.0028-3.9214 12.452c-3.9134 12.427-3.918 12.461-2.2525 16.822 0.91788 2.4034 1.3704 4.8527 1.0057 5.4429-0.36475 0.59017 0.75699 6.3622 2.4927 12.827 3.2433 12.079 3.4616 17.54 1.3192 33.004l-0.58884 4.25h-22.418c-19.346 0-22.5-0.21284-23.014-1.5532zm190.22-3.271c-1.9762-0.68795-3.5287-0.87742-3.1458-2.0312 0.30013-0.90448-0.17483-0.632-1.0555 0.6055-1.1196 1.5733-2.6171 2.25-4.9792 2.25-1.8579 0-3.378-0.23356-3.378-0.51901 0-0.28546 5.5921-10.298 12.427-22.25 8.3305-14.568 13.833-25.522 16.693-33.231 7.8395-21.132 12.592-28.042 18.301-26.609 1.7201 0.43172 10.682 9.6419 26.574 27.31 13.188 14.662 24.242 27.358 24.112 27.456-0.13009 0.0981-6.0895 5.4295-13.669 12.107s-13.744 12.708-14.009 12.708-3.108-3.5598-5.1303-6.7223-8.0593-12.421-13.415-20.575c-9.5405-14.523-9.7688-14.778-11.228-12.5-0.81942 1.2787-6.7314 11.325-13.138 22.325-6.4063 11-11.768 19.844-12.145 20.188-0.37648 0.34375-1.2644 0.0275-2.8135-0.51175zm36.442-54.842c0-2.9316-0.17797-2.8926-1.8997 0.41667-0.97013 1.8646-0.90769 2.25 0.36455 2.25 0.99645 0 1.5352-0.9358 1.5352-2.6667zm-159.52 46.417c-0.71596-1.953-6.4655-24.16-6.4726-25-7e-3 -0.87083 27.448-1.0032 30.636-0.14777 1.3266 0.35594 2.3556 1.6394 2.7017 3.3697 0.30743 1.5371 0.84959 3.9528 1.2048 5.3681l1.1302 3.8077-5.8935-2.8796c-7.6028-3.7147-7.4172-3.6251-0.77027 1.48 1.6768 1.2878 4.3458 3.2003 4.9226 5.2468 0.66675 2.3658 1.7528 3.799 3.8072 5.0913 1.7488 1.1 1.3045 4.9594 1.3045 4.9594s-7.264-0.0455-16.081-0.0455c-11.914 0-16.149-0.32104-16.49-1.25zm-122.6-1.9794c-1.3088-2.5309-1.323-6.9166-1.1541-21.261 0.26623-22.608 1.257-21.769 2.501-23.272 1.6775-2.0275 4.5931 0.51231 3.2945 2.9388-0.69243 1.2938-0.58817 2.2561 0.13642 3.61 0.5837 1.0906 1.4883 9.0791 1.83 17.759 0.53586 13.611 0.54279 16.833-0.90019 19.623-0.92018 1.7794-2.936 4.7512-3.1828 4.7512s-1.6608-2.4787-2.5249-4.1495zm-153.89-54.494c-0.99374-1.584-1.4851-7.3168-1.7253-17.954-0.18628-8.25 0.53221-15.342 0.30027-15.976-0.23194-0.63404 0.20808-1.984 0.97781-3 1.1282-1.4891 1.436-1.5564 1.5875-0.3472 0.4586 3.6585 2.2244 7.1447 3.824 21.036 1.4796 12.849 0.77677 16.315-0.39823 17.624-2.7025 3.0118-0.30015 3.2964-4.5661-1.3829zm256.79-24.873c-1.9724-3.8703-1.4338-6.4036 1.3614-6.4036 2.6387 0 3.1419 1.9004 1.6348 6.174l-1.2732 3.6105z" fill="#8789e7"/>
<path d="m350.86 325.22c-0.90041-0.52586-6.7298-5.8687-8.3691-8.4886-2.6487-4.2332-2.4186-7.8982-3.9237-21.228-0.93147-8.25-1.9522-16.912-2.2684-19.25l-0.57482-4.25h5.6359c5.1788 0 5.2784-3.5691 5.6331 2.25 0.61109 10.024 2.5307 39.893 3.6299 42.606 1.8666 4.608 3.7974 10.44 0.23702 8.3608zm-44.203-8.1665c-1.5444-1.2194 2.9732-2.8743 7.9233-3.9821 3.0493-0.6824 5.7363-1.7645 5.9711-2.4046 0.23484-0.64012-0.60429-9.6014-1.8647-19.914l-2.2917-18.75h5.2208c8.9265 0 2.6169-3.8387 6.8692 18.5 1.3385 7.0314 0.84749 14.84 1.1461 17.088l0.54299 4.0884-4.0674 2.698c-6.0538 4.0156-17.266 4.4003-19.45 2.6757zm-21.982-106.1 6.1799-1.9818 0.56319-5.2353c0.30976-2.8794 1.2508-17.385 2.0913-32.235 1.8112-32.002 2.8145-40.32 5.4629-45.289 2.1708-4.0732 6.7465-10.333 7.3212-9.7153 0.2004 0.21541 1.9705 5.9462 2.5763 10.389l0.97451 7.1468-6.3796 36.955c-3.456 20.02-6.1365 37.638-6.8118 39.014-1.1509 2.3435-1.7575 2.5136-9.6927 2.7171l-8.465 0.21707zm150.05-1.674c1.7752-0.22091 4.9252-0.22454 7-8e-3 2.0748 0.21648 0.6223 0.39722-3.2277 0.40166-3.85 4e-3 -5.5475-0.17268-3.7723-0.39359zm-30.415-10.461c-3.6281-0.9579-7.3026-5.067-7.3343-8.2017-0.0133-1.3131-1.53-3.1825-4-4.93-3.4137-2.4152-5.111-4.6852-3.5033-4.6852 0.26146 0 4.6864 2.25 9.8332 5s10.045 5 10.886 5c1.0717 0 1.3918 0.7133 1.0717 2.3879-0.25106 1.3134-9e-3 3.2259 0.53745 4.25 0.84972 1.5919 0.60959 1.8736-1.6548 1.9412-1.4568 0.0435-4.083-0.29948-5.8359-0.76229zm-49.313-37.231c0-0.22764 2.925-2.7414 6.5-5.5861 4.065-3.2346 6.5-5.913 6.5-7.1497 0-1.0876-3.0714-6.3364-6.8254-11.664-3.754-5.3275-7.9025-10.881-8.264-11.501-0.65548-1.1235 1.4601-10.595 2.7115-11.843 0.75728-0.7551 26.704 31.326 27.217 33.728 0.84188 3.9465-0.98612 6.4272-7.656 10.39-6.1256 3.6392-7.4616 4.0392-13.491 4.0392-3.6805 0-6.6918-0.18625-6.6918-0.4139zm87.803-8.2823c-2.2653-1.4528-0.49928-12.467 0.14169-12.467 1.6765 0 10.735 1.5094 7.0372 8.2526-1.602 2.9214-3.95 6.2851-7.1789 4.2142zm-165.4-3.5538-1.905-2.25 2.25 1.905c1.2375 1.0477 2.25 2.0602 2.25 2.25 0 0.80025-0.80479 0.20945-2.595-1.905zm167.96-18.21c-1.1466-0.8031-2.6342-2.7868-3.3058-4.4081-1.0287-2.4834-0.95348-3.3564 0.47719-5.5398 1.609-2.4556 2.1523-2.5927 10.333-2.6072 4.7492-8e-3 9.3099-0.44194 10.135-0.96338 1.8483-1.1684 2.8292 0.88962 2.93 6.1469 0.0938 4.8956-0.70895 6.7015-2.7443 6.1736-0.92698-0.24043-3.6545 0.2593-6.0612 1.1105-5.4773 1.9373-9.0847 1.9641-11.764 0.0875zm-10.173-1.4028c-1.4187-0.89966-1.927-6.1315-0.77652-7.9929 0.85458-1.3827 3.2488-1.5038 4.0516-0.20478 0.70649 1.1431-0.46762 9.0668-1.3403 9.0454-0.3422-8e-3 -1.2128-0.38988-1.9347-0.84768zm-110.68-11.54c-0.68696-1.1-2.2178-1.779-3.2128-1.779-3.4458 0-6.971-3.2925-9.4984-7.6052-2.9701-5.0681-4.095-8.638-1.6479-8.6516-2.5015-4.6237 4.7763-0.70679 7.734-2.0836l5.3776-2.5034-0.60263 3.0131c-0.76402 3.8201 0.29159 3.8369 2.8322 0.04502 1.2755-1.9038 2.3297-2.6174 2.95-1.9971 0.53088 0.53088 1.9102 0.96523 3.0652 0.96523 5.2714 0 5.9152 4.7831 1 7.4301-3.6533 1.9674-4.1346 4.9684-2.1757 8.6287 2.4432 4.5651-3.1054 8.8872-5.8216 4.5379zm-233.33-18.911c-1.1959-1.2729-2.1743-3.3389-2.1743-4.591s-1.575-4.1166-3.5-6.3655c-1.925-2.2489-3.5-4.683-3.5-5.409 0-0.726-1.0553-1.32-2.345-1.32-3.6101 0-7.2857-5.1927-6.0166-8.5 1.0518-2.7408 3.9062-1.6483 5.2255 2 0.69609 1.925 1.6749 3.5 2.1752 3.5 1.8577 0 4.1837-6.3029 3.6885-9.995l-0.49218-3.6695 3.5938 1.8322c4.4344 2.2608 13.832 2.458 16.837 0.35333 1.9442-1.3618 2.1587-1.3024 2.7088 0.75 2.0901 7.7974-0.78352 20.492-5.4135 23.915-1.6901 1.2496-2.9618 3.1158-2.9618 4.3467 0 2.1727-2.8046 5.4669-4.6544 5.4669-0.54832 0-1.9754-1.0415-3.1713-2.3145zm-82.437-3.7239c-6.8594-5.2954-9.1062-8.8644-8.5641-13.604 0.30641-2.6793 0.59184-2.8457 4.5768-2.6682 3.0388 0.13537 4.25-0.20406 4.25-1.191 0-0.75917-0.45-1.6584-1-1.9983-1.2198-0.7539-1.3335-3.5-0.14489-3.5 0.47031 0 2.7803 2.7446 5.1334 6.0991l4.2783 6.0991 2.2896-2.8491c3.59-4.4673 4.2221-0.72937 1.0488 6.202-2.0155 4.4024-2.3477 6.0616-1.5222 7.6039 1.1538 2.1558-0.27466 4.8449-2.5736 4.8449-0.68514 0-4.1826-2.2672-7.7721-5.0383zm110.97-9.7553c-4.614-4.6845-4.7068-4.9015-4.0727-9.5273 0.35685-2.6035 1.0557-4.9851 1.553-5.2924 1.5779-0.97522 3.8165 1.754 3.8165 4.6529 0 2.0464 1.086 3.6967 4.0564 6.1641 3.708 3.08 7.6058 4.1079 6.6628 6.5882-0.56741 1.4924-3.7949 4.0272-4.5167 4.0272s-4.9024-3.9762-7.4992-6.6127z" fill="#ecbac4"/>
<path d="m245.5 212c0.33992-0.55 2.0915-1 3.8924-1s3.5369-0.26262 3.8579-0.58361c0.98444-0.98445-3.3422-7.4066-5.0991-7.5687-2.7401-0.25276-3.4927-0.47913-7.5231-2.2628-2.1296-0.94246-5.6171-1.7376-7.75-1.7671l-3.8781-0.05352-9e-3 -11.632c-0.0219-29.201-1.6199 8.5726-7.6778 2.5148-0.2164-0.21639-1.4648-4.388-2.7743-9.2702l-2.3809-8.8767 5.6776-11c5.6606-10.967 5.6925-11.005 10.671-12.563 2.8617-0.89559 7.0451-1.3843 9.7996-1.1448 4.7082 0.40934 4.7935 0.47656 4.1755 3.2902-0.76567 3.486 0.25877 7.1956 1.7351 6.2832 0.73473-0.45409 0.82192 0.25066 0.27658 2.2355-0.43804 1.5942-0.67736 10.549-0.53184 19.899 0.19847 12.751 0.64056 17.732 1.7689 19.928l1.5044 2.9276 2.2749-3.7694c2.1595-3.5781 2.2511-4.5134 1.805-18.428-0.25847-8.062-0.88507-15.963-1.3924-17.557-1.3947-4.3832-1.2258-6.0974 0.4627-4.6961 1.1074 0.91905 1.8334 0.39207 3.6198-2.6276 1.8334-3.099 2.0492-4.2709 1.2017-6.5272l-1.0326-2.75h4.6697c8.9437 0 15.926 3.8087 18.326 9.9965 1.6263 4.1928 5.9242 54.31 4.7576 55.476-0.56226 0.56226-3.2445 1.0545-5.9606 1.0939-2.716 0.0394-5.2446 0.37796-5.6191 0.75242-1.1305 1.1305-29.549 0.81605-28.848-0.31916z" fill="#e8cf8b"/>
<path d="m447.45 208.87c-2.1741-2.2688-3.503-4.2952-2.953-4.5033 0.55-0.20807 3.7-1.7326 7-3.3878l6-3.0096-10.969 0.55858c-10.626 0.54111-13.444 1.4916-11.662 3.9336 0.41479 0.56845 0.72655 2.1585 0.6928 3.5335-0.0579 2.3606-0.40994 2.5166-6.3114 2.7977l-6.25 0.29771v-10.095h-5.481c-5.011 0-5.5347-0.21414-6.1078-2.4978-1.0245-4.0818 0.052-5.1962 5.5275-5.7223 2.8079-0.2698 5.3403-0.72558 5.6275-1.0128 0.28726-0.28726 0.38986-4.0649 0.22802-8.3947l-0.29427-7.8724-6.964 16.672-2.192-7.8362c-1.2056-4.3099-2.222-8.9612-2.2586-10.336-0.1059-3.9702 10.853-23.069 14.727-25.665 3.4746-2.3284 13.745-5.1117 14.836-4.0206 0.34953 0.34953-0.41843 1.4889-1.7066 2.532-2.2623 1.8319-2.3021 2.1116-1.1673 8.2137 0.64614 3.4745 1.8405 6.9829 2.6542 7.7966 1.3058 1.3058 1.9485 1.1543 5.4782-1.2918 4.1271-2.8601 7.0942-6.5327 7.0931-8.7797-4.5e-4 -0.91955 1.4033-1.1879 4.934-0.94312 4.1387 0.28689 5.1454 5e-3 6.2412-1.75 1.7372-2.7817 2.1595-2.6885 6.7943 1.4988 5.7988 5.2388 6.0194 8.1412 1.5267 20.081-10.006 26.592-9.709 25.617-7.6263 25.072 1.552-0.40587 1.1592-6.0083 1.647-3.059 0.32997 1.995 1.4667 11.727 1.4727 14.065 9e-3 3.5347 1.0785 7.1668-0.52544 7.1668-1.0607 0-3.7305-0.0763-5.3952 0.0416-1.3014 0.0922-8.2798-3e-3 -11.274-3e-3 -4.399 0 0.23037-0.35363-3.3414-4.0808zm0.13581-22.418c1.6645-0.33025 3.2334-3.4033 7.7239-15.129 3.0993-8.0928 5.5091-14.84 5.3551-14.994-0.15403-0.15403-5.8798 5.7907-12.724 13.211-7.4996 8.1305-12.568 14.461-12.756 15.933-0.30426 2.3774-0.17105 2.4285 5 1.9181 2.9219-0.28845 6.2525-0.71094 7.4014-0.93888z" fill="#d6939a"/>
<path d="m446.36 211.25c0.11404-1.4368-0.92926-1.8395-5.8303-2.25l-5.9692-0.5-0.0989-3.7354c-0.0544-2.0544-0.73382-5.7741 0.85349-5.5881 0.62222 0.0729 5.1814-0.3364 11.215-0.64363l10.969-0.55858-6 3.0096c-3.3 1.6552-6.45 3.1798-7 3.3878-0.55 0.20806 0.77883 2.2345 2.953 4.5033 3.9183 4.0889 3.9302 4.125 1.3611 4.125-1.8547 0-2.5523-0.49774-2.453-1.75zm17.963-21.265 2.4576-5.0672-0.0695 3.5988c-0.14197 7.3538 0.86844 5.7102-2.9603 6.7929-1.2159 0.34385-0.87922-1.2435 0.57217-5.3245zm-29.137-4.5067c0.18839-1.472 5.2568-7.8026 12.756-15.933 6.8441-7.4198 13.007-13.865 13.161-13.711 0.15404 0.15403-2.6823 7.3617-5.5894 15.526-6.0197 16.904-4.5111 15.104-15.328 16.036-5.177 0.44607-5.3043 0.45937-5-1.9181z" fill="#bb7489"/>
<path d="m226.75 212.98c-0.0358-3e-3 -0.72531-2.6216-0.70687-2.6243 0.97016-0.14499-4.1e-4 -0.0943 9.4427-0.0753 9.4191 0.019 9.4412 1.044 9.5126 1.9925-0.0893 0.9737-0.66667 0.73162-8.8333 0.73162-4.8583 0-8.965 0.0151-9.4151-0.0245zm132.96-1.8237c0-1.3172 2.2864-1.1518 21.375-1.1518 17.222 0 20.247-0.73933 20.341 1.471 0.0817 1.916-4.5083 1.0964-20.758 1.2985-18.835 0.23428-20.959-0.30049-20.959-1.6177zm-184.71-30.093v-17.059h12.5c6.875 0 13.214 0.0254 13.214 0.13985 0 1.5008-22.573 30.663-23.358 30.178-1.6323-1.0089 24.523-31.54-1.0859 3.2913-0.96973 1.319-1.2703-4.7066-1.2703-16.55zm348.9-15.969c-1.4533-0.80442 7.1633-17.431 7.1633-14.5 0 1.7309 1.0584 22.648 1.1958 23.635 0.66526 4.7812-6.6501-8.1896-8.359-9.1356zm-197.43-36.051c-1.3447 0.082-2.1651-0.0314-4.1376-0.70961-2.3018-0.79147-5.2046-2.5713-7.4286-3.3416-1.8016-0.62401-1.9037-4.928-1.8847-6.3457 0.0422-3.1488-2.563-7.1302 1.3953-5.8518 2.1278 0.68724 10.667 3.6281 10.519 5.7684-0.13276 1.9199 4.3603 2.1436 5.4645-0.60374 0.60319-1.5007 1.5-0.91659 1.5423 0.16064 0.0349 0.88833-0.8852 2.8211-2.0446 4.295-1.3309 1.6919-1.935 3.5849-1.6387 5.1349 0.58711 3.0713 2.4252 1.2366-0.7513 1.4303zm184.32 52.063c12.816-17.104 16.635-20.609 13.385-15.959-0.99151 1.4187-26.187 44.271-27.114 43.905-8.6957-3.4378-9.3982 2.9182 13.728-27.946z" fill="#7274c6"/>
<path d="m614.98 292.33c-0.56546-1.5572-4.6306-10.031-9.0337-18.831s-8.669-18.685-9.4798-21.967c-2.4935-10.092-3.5408-25.994-2.4928-37.849 1.3516-15.288 1.9374-17.999 3.593-16.625 2.1466 1.7816 6.5976 9.8757 9.5908 17.441l2.7695 7 0.092-13c0.0506-7.15 0.43259-14.8 0.84881-17l0.75676-4 1.632 7c2.5302 10.852 3.677 19.02 4.3898 31.263 0.36066 6.1949 0.81759 11.102 1.0154 10.904 0.26219-0.26219 7.4503-28.005 8.4523-32.622 0.53599-2.4697 1.6682 7.3912 1.7634 15.358 0.15865 13.279-2.2628 33.525-6.7246 56.224-3.7004 18.826-5.1644 22.235-7.1729 16.704zm-572.56-2.7812c-0.3382-1.3475-3.7532-8.435-7.589-15.75-10.749-20.499-13.834-31.965-13.834-51.412 0-10.008 1.8013-27.537 2.9512-28.718 1.0787-1.1078 7.4715 9.5502 10.399 17.337l2.3448 6.2373 0.65268-4.7618c0.12221-0.89163 0.24207-2.3597 0.34917-4.1712 0.2075-3.5095 0.36714-8.3079 0.40336-12.701l0.09985-12.11 1.8229 5.6292c2.0032 6.186 4.4939 22.367 5.5984 36.371l0.70984 9 4.1356-16.477c2.7866-11.102 4.4212-16.014 5.0113-15.06 1.4337 2.3198 0.87669 27.597-0.90398 41.023-1.3498 10.178-5.8328 35.463-8.1136 45.763-0.66427 2.9999-3.2661 2.871-4.0369-0.19997z" fill="#5eae9c"/>
<path d="m109.66 313.25c-109.66-313.25-109.66-313.25 0 0zm353.11-101.42c1.2411-1.2411 20.115-2.9285 23.335-2.0862 1.0395 0.27184 1.89 1.1168 1.89 1.8776 0 1.108-2.628 1.3834-13.2 1.3834-10.109 0-12.925-0.27508-12.025-1.1748zm-234.77-5.3252c1.0365-1.249 0.90757-1.5-0.77057-1.5-3.5334 0-3.3003-2.5958 0.39111-4.3561 1.896-0.90415 4.2519-1.6439 5.2352-1.6439 3.3034 0 11.144 3.1747 11.144 4.5122 0 0.72832 0.27314 2.036 0.60699 2.906 0.52647 1.372-0.61725 1.5818-8.6224 1.5818-8.0906 0-9.0758-0.18509-7.9845-1.5zm21.831-58.741c-0.73184-0.69255-3.4438-1.2704-6.0265-1.2841-5.4941-0.0291-10.286-3.524-9.4125-6.8647 0.58909-2.2527-0.97122-5.5864-3.4331-7.335-0.94824-0.67353-1.926-2.6002-2.1727-4.2814-0.30821-2.1-0.12579-2.734 0.58277-2.0254 1.6048 1.6048 17.142 1.2627 21.286-0.46858 4.5109-1.8848 4.3458-1.9097 4.3458 0.65499 0 2.0938 0.0569 2.1035 2.0061 0.33946 2.7282-2.469 3.4939-1.2951 3.4939 5.3564 0 4.4621-0.47498 6.1744-2.2604 8.1491-1.2432 1.375-2.0611 3.0202-1.8174 3.656 0.41484 1.0826-1.4192 3.1898-4.0915 4.701-0.64316 0.36371-1.7682 0.0947-2.5-0.5979zm-4.0003-9.5917c0.45219-3.1927-2.5927-6.336-5.7782-5.9649-3.2048 0.37336-3.9797 4.115-1.4347 6.9271 2.4609 2.7192 6.7729 2.144 7.2129-0.96227zm-7.3368 0.0668c-2.0842-3.0854-0.49929-5.6133 2.4883-5.6133 2.4472 0 5.0916 3.8706 4.3486 5.807-0.77566 2.0213-4.4981 3.2685-6.8369-0.19376zm-7.5999-1.6809c-1.1686-2.8206-0.0386-3.9736 1.574-2.361 0.59241 0.59241 1.7181 3.4309 1.4753 4.4518-0.38234 1.6076-2.1522 0.0744-3.0493-2.0908zm271.01-2.8034c-3.238-2.3917-5.4565-3.25-8.4-3.25h-4l0.28877-3.7138c0.17631-2.2675-0.50523-5.2702-1.75-7.7102-2.2772-4.4637-2.7506-11.949-0.78877-12.471 0.6875-0.18294 3.275-0.86341 5.75-1.5122 2.475-0.64875 5.2069-1.4164 6.0708-1.7058 1.1561-0.38729 1.9025 0.58073 2.827 3.6666 0.92919 3.1014 1.5485 3.9004 2.3792 3.0698 3.2119-3.2119 8.723 0.54023 8.723 5.939 0 1.8413 0.76318 2.9647 2.5749 3.7902 1.4162 0.64527 2.9162 0.9623 3.3333 0.7045 1.5083-0.93217 0.9117 3.0458-1.1572 7.7161-1.1629 2.625-2.5951 4.6045-3.1827 4.3988-0.58762-0.20567-2.3404 0.68407-3.8951 1.9772-1.5547 1.2931-3.1747 2.3512-3.6 2.3512s-2.7532-1.4625-5.1733-3.25zm-198.57 178.57c-109.66-313.25-109.66-313.25 0 0zm167.76-100.19c1.2411-1.2411 20.115-2.9285 23.335-2.0862 1.0395 0.27184 1.89 1.1168 1.89 1.8776 0 1.108-2.628 1.3834-13.2 1.3834-10.109 0-12.925-0.27508-12.025-1.1748z" fill="#916069"/>
<path d="m150 289.5v-66.5h5v133h-5zm337.51 0.30317v-66.803h4.4947v133h-4.4947zm45.495 58.993c0-0.87696 2.003-1.9194 5.25-2.7323 2.8875-0.72292 6.6514-1.8845 8.3642-2.5813l3.1142-1.2669 0.64516-54.358c0.35484-29.897 0.91899-60.743 1.2537-68.548l0.6085-14.19 13.632-11.974c7.4976-6.5859 13.762-11.845 13.921-11.687-5.8598 43.736-12.582 87.36-18.843 131.04-2.1979 15.4-4.5332 29.912-5.1894 32.25l-1.1932 4.25h-9.1999c-5.0599 0-9.9117 0.27314-10.782 0.60699-0.98407 0.37762-1.5818 0.07118-1.5818-0.81095zm-422.07-8.9348c-0.0365-0.19871-1.499-33.211-3.25-73.361l-3.1836-73h-4.5c-4.2782 0-4.5122 0.14789-4.7482 3-0.4586 5.5425-8.2518 137.36-8.2518 139.57 0 1.9838-0.38245 2.1376-4.0826 1.6413-2.2454-0.30118-4.1784-0.69793-4.2956-0.88167s-0.03328-37.572 0.18635-83.084l0.39933-82.75 6.1462 4e-3c3.3804 2e-3 12.583 0.29813 20.451 0.65804l14.305 0.65439-0.68956 83.092c-0.37926 45.701-0.74144 83.164-0.80484 83.253-0.27189 0.37928-7.6215 1.5279-7.6817 1.2005zm91.761-2.5613c-2.853-0.73957-1.5635-2.4968 4.9903-6.8 8.9154-5.8539 9.3261-7.4296 9.32-35.75l-0.00495-22.75h9.5674c8.6496 0 9.809-0.1822 9.7381 0.0826-5.1149 19.089-12.33 39.461-13.806 59.207l-8.5 3.3165c-3.8492 1.3854-7.2581 3.716-11.305 2.6936zm194.06 0.0114c-2.7855-0.72834-0.49536-3.7556 5.5986-7.4006 4.1878-2.5048 5.6583-4.0771 6.8288-7.3015 1.2602-3.4715 1.9739-4.1573 4.5982-4.4184 3.0517-0.30366 3.1118-0.2245 3.4136 4.5l0.3072 4.809 1.8164-3.3288c2.3828-4.3668 6.9592-6.1712 15.651-6.1712h7.0321v-11.941c0-6.882-0.14011-11.179 0.59577-12.559 0.8616-1.6161 0.77245-5.1814 1-11.059l0.40423-10.441h6v10.531c0 8.4388 0.95775 9.5857 1.5 10.753 0.3576 0.77002 1.5 3.1688 1.5 12.782v11.853l8.25 0.33689c7.8454 0.32038 7.7227 0.34688-2.5 0.54044l-10.75 0.20355v3.7778c0 2.5403 0.65514 4.3387 2 5.4902 3.7377 3.2004 1.424 8.1338-3.5493 7.5678-2.5035-0.2849-2.9977-0.82134-3.2606-3.5399-0.22902-2.3675 0.2279-3.54 1.75-4.4905 1.5001-0.93686 2.0599-2.3321 2.0599-5.1344v-3.8479l-10.922 0.33847c-9.9384 0.30799-11.154 0.55685-13.5 2.7628-2.9453 2.77-3.2168 4.3004-1.0778 6.0757 1.8018 1.4954 1.9625 5.1375 0.3 6.8-1.6851 1.6851-4.8197 1.4921-6.9406-0.42723-1.6685-1.51-2.3088-1.4379-8.886 1-3.8983 1.445-7.1746 2.575-7.2807 2.5112s-0.97863-0.32148-1.9391-0.57262zm-171.96-3.8728c-1.0282-2.2566-0.85189-2.8812 1.4816-5.25 1.4568-1.4788 3.9793-4.2637 5.6057-6.1887 2.9186-3.4544 3.0738-3.5045 11.916-3.8449l8.9585-0.34486 0.72994-22.905 0.72993-22.905h6.7885l0.45476 11.051c0.27412 6.661 0.56434 10.854 0.6463 11.455 0.20688 1.5158 0.89894 4.1614 0.89894 11.495v12l8.25 0.0147c9.2912 0.0166 12.335 1.1393 15.248 5.6246 1.1011 1.6952 2.902 3.4823 4.002 3.9714 4.1147 1.8295 2.6115 8.3893-1.9224 8.3893-4.3536 0-6.0864-4.6752-2.9979-8.0881 1.2395-1.3696 1.3408-2.192 0.47036-3.8184-2.0817-3.8896-6.2179-5.0935-17.5-5.0935h-10.55v3.7594c0 2.6764 0.57615 4.1193 2 5.0085 3.757 2.3463 1.9696 8.2321-2.5 8.2321s-6.257-5.8858-2.5-8.2321c1.4238-0.88921 2-2.332 2-5.0085v-3.7594h-9.4349c-10.679 0-13.76 0.84148-16.088 4.3944-1.5338 2.3408-1.5023 2.6527 0.54708 5.4247 1.7863 2.4161 1.9719 3.3195 1.0398 5.061-1.6956 3.1682-6.7523 2.8985-8.2741-0.44138zm250.46 1.899c-1.7146-0.69188-1.5782-5.8204 0.19396-7.2912 1.939-1.6092-2.8035-6.8796-6.3155-8.7898-1.407-0.76529-27.531-1.1594-1.729-1.1814 1.7655-2e-3 9.6005 4.9205 9.6005 6.5187 0 0.79687 1.1164 1.9575 2.4808 2.5792 6.5554 2.9868 2.471 10.869-4.2308 8.1645zm-300.55-5.6858c0.773-0.68894 0.91014-0.83588 11.303-4.6404 5.5443-2.0295 10.82-2.5254 11.211-2.8834 0.39124-0.35796-1.9681-11.221-5.2429-24.14-3.2749-12.919-6.3861-25.21-6.694-25.825-0.15659-0.31266 2.9482-0.16363 8.5238-0.16363h7.7982l2.127 25.25c2.2251 26.414 2.1353 31.374-0.5821 32.157-0.90273 0.2599-7.535 0.77864-14.738 1.1528-11.447 0.59452-14.816 0.0814-13.706-0.90761zm175.17-0.43145c-3.369-2.3203-4.6513-4.0264-7.5033-9.9831-2.9866-6.2378-2.6166-9.5699 0.40758-3.6704 2.6635 5.1959 4.6168 6.7836 7.6357 6.2066 1.8278-0.34939 2.6816 0.1205 3.5058 1.9294 2.4921 5.4696 0.27506 8.4934-4.0457 5.5176zm19.135 0.90773c0-0.6205 0.0993-1.4657 0.22063-1.8782 0.12134-0.4125 7.1436-2.3732 15.605-4.3572l15.384-3.6072-0.65616 4.1072c-0.36089 2.259-0.97063 4.4054-1.355 4.7699-1.336 1.267-29.199 2.1883-29.199 0.96549zm-66.6-10.29c-1.1276-1.8246 3.5875-5.116 6.0427-4.2182 4.2544 1.5559 14.461-1.3942 18.811-3.5688 4.5434-2.2712 4.351 1.1871 0.84733 4.3579-4.1079 3.7176-23.891 6.3571-25.701 3.429zm303.1-26.271c-4.7011-1.5038-3.4277-2.4315 3.8606-2.8126 4.2399-0.22171 4.97 0.0332 5.7178 1.9958 0.78177 2.0521 0.57411 2.2432-2.3606 2.1732-1.7698-0.04227-5.0178-0.65264-7.2178-1.3564zm13.274-1.1647c0.43692-2.2856 0.85608-2.526 3.4863-2 1.6443 0.32887 4.0584 0.59794 5.3647 0.59794 3.6496 0 2.8178 1.783-1.375 2.9474-6.411 1.7804-8.0471 1.4422-7.476-1.5454zm-585.27-1.1151c-3.2736-0.7874-3.9795-2.1372-1.3946-2.6668 5.6628-1.1601 9.8946-1.4334 9.8946-0.63905 0 0.47044 0.27314 1.5672 0.60699 2.4371 0.49288 1.2844-0.11809 1.56-3.25 1.4658-2.1213-0.0638-4.757-0.33248-5.857-0.59707zm12.893-0.86872c0.33384-0.86998 0.60699-1.77 0.60699-2 0-0.84702 9.9009-0.38765 10.44 0.48438 0.70476 1.1403-4.7898 3.0974-8.696 3.0974-2.2863 0-2.82-0.35912-2.3508-1.5818zm305.96-104.18c-5.9827-22.13-6.8899-22.602-3.6817-23.367 0.46971-0.1119 0.0331 0.0782 0.94321 3.3757 1.7856 6.4696 4.0668 12.796 5.8646 21.82 1.2614 4.2202 5.4995 17.569 5.9107 21.757 8e-3 1.3162-0.64825 0.93744-1.3358 0.93243-0.78111-6e-3 -3.8593-10.308-7.701-24.518zm67.454 21.97c-0.25753-0.41668-2.7973-7.0229-3.123-9.2188 1.6153-0.27035-0.0288-0.0429 3.3337 6.2264 0.92316 3.5385 0.84173 4.6952-0.21065 2.9924zm-9.3382-31.417s-4.1958-13.092-3.1084-12.987c3.5707 0.34308 4.2734 11.724 4.2734 11.724 1.5298 6.05 5.1234 15.175 3.6382 15.449-0.56623 0.10439-3.2312-7.748-4.8033-14.186zm-62.376-14.083c4.8079-1.6732 55.519-0.80729 60.134 1.3406 1.8077 0.84126-2.1651 1.1826-31.403 0.62012-10.173-0.19572-33.951-0.14406-28.731-1.9607zm-18.861-31.84c-2.7725-1.2573-2.1595-4.8946 0.35284-8.2928 2.08-2.8133 1.8582-2.9817 0.12415-8.2025-1.6807-5.06-1.3067-4.8845-0.43449-6.6284 1.6338-3.2664 6.237-5.1098 6.237-6.0218 0-1.776-1.6351-3.513-3.1434-2.9342-0.9737 0.37364-2.4352 0.31995-2.772-0.96792-2.3831-0.38261-1.533-1.9421-3.7439 1.1999l-3.343 4.7508s-0.20932-2.1578-0.14531-3.2355c0.0805-1.3553 0.66312-4.0187 0.66312-4.0187l-4.5265 1.7593c-2.5567 0.99366-7.17 2.7227-9.32 3.0665l-5.1955 0.33166 1.4212-6.7495c2.7032-12.837 5.1387-14.26 9.2422-16.391 4.9229-2.557 13.076-1.5402 19.254 0.87334 1.8507 0.72303 2.3176 1.0344 3.3395 1.5902 2.2361 1.2162 6.5369 5.596 8.3992 11.776 1.0227 3.3934 3.0762 7.1668 5.043 9.2666 3.8741 4.136 4.0792 5.7203 1.2122 9.365-2.1229 2.6988-1.082 3.1558 1.2242 8.8882 1.0859 2.6991 0.34131 5.3776-1.1194 7.6069-1.4691 2.2422-3.2715 2.0626-7.7775 2.0932-2.8748 0.0195-4.8487 0.24905-6.2237 1.0351-3.2824 1.8764-4.1137 1.9507-6.5948 0.82548zm-23.637-12.864c-0.13611 0.33511 0.99027-8.8052 2.1543-10.689 2.0991-3.3964 2.7222-1.1459 3.703 1.1346 0.56272 1.3084 3.222 4.584 2.8895 4.3366-1.2973-0.96501-6.8267 0.48992-8.7468 5.2174zm-196.94-30.714c-1.3475-0.34747-1.6766-1.0554-1.2244-2.634 1.4013-4.8918 1.7269-11.421 0.74671-14.971-0.92271-3.3418-0.84875-3.7273 0.63842-3.3268 0.92512 0.24908 2.9195 0.72827 4.432 1.0649 3.2248 0.71765 3.284 1.2817 1.2498 11.912-0.82491 4.3109-1.4998 8.0234-1.4998 8.25 0 0.48725-1.7769 0.36648-4.3428-0.29516zm-29.696-12.909c-1.7775-5.3859-0.64827-11.158 2.8714-14.678 3.8421-3.8421 10.674-4.6942 18.035-2.2493 2.7978 0.92929 5.5471 1.4053 6.1094 1.0577 2.0013-1.2368 1.0989 6.107-0.98179 7.99-2.963 2.6815-12.298 2.5902-17.59-0.17199l-4.0938-2.137 0.45706 4.7567c0.44171 4.597-0.89985 9.0484-2.727 9.0484-0.488 0-1.4244-1.6275-2.0808-3.6166z" fill="#514d5f"/>
<path d="m126.5 344.49c-0.55-0.19373-4.2625-0.87386-8.25-1.5114-3.9875-0.63755-7.25-1.529-7.25-1.9809 0-0.45197 1.7204-1.1124 3.8231-1.4677 2.8497-0.48145 5.5728 0.0127 10.695 1.9408 3.7798 1.4227 7.0844 2.7988 7.3436 3.058 0.5339 0.5339-4.829 0.50114-6.3621-0.0389zm438.84-0.22889c0.31116-0.50347 3.2872-1.7394 6.6135-2.7465 4.7244-1.4304 6.0478-2.2612 6.0478-3.7964 0-1.0809-2.5142-16.191-5.587-33.577l-5.587-31.612 6.2739-43.244c3.4507-23.784 6.4006-43.118 6.5553-42.963 0.15475 0.15476-0.0999 18.708-0.56582 41.23l-0.84719 40.948 3.825 37.47c2.1038 20.609 3.7368 37.54 3.6289 37.625-0.93084 0.73121-20.8 1.3811-20.357 0.66589zm-504.34-0.71702c0-0.26382 3.7357-1.6191 8.3016-3.0118 8.2843-2.5269 17.698-3.3732 17.698-1.5912 0 1.5912-1.5703 2.064-10.187 3.0669-4.5721 0.53214-10 1.2034-12.063 1.4916-2.0625 0.28827-3.75 0.30826-3.75 0.0444zm390.22-195.41c-8.1892-2.7298-14.317-10.742-13.816-18.497 0 0-1.3481-5.2071 2.8165-5.5165 1.1149-0.0828 2.0501 3.1333 2.0501 3.1333 1.5642 1.3408 2.3207 3.8905 4.2054 4.7892 3.1769 1.515 5.5884 0.0538 11.163-1.4961 8.457-2.3512 7.0174-0.16402 7.7024 4.6995 0.32922 2.3375 0.8902 5.4875 1.2466 7 0.48681 2.0658 0.69469 3.877 0.18667 4.0537-0.77914 0.27112-1.6027 0.32547-1.8904 1.4255-0.42533 1.6265-1.9429 2.384-5.4753 2.3324-2.389-0.0349-2.8635-0.14912-4.2512-0.6117zm-191.22-14.203c0-1.1362 0.39364-3.1594 0.37115-4.3206-0.0236-1.2205 0.0282-2.0335-0.3037-2.8983-0.6569-1.7118-2.067-1.627-2.067-7.8e-4 0 0.55-2.2007 1.3394-2.7507 1.3394s-0.48193-1.2174-0.48193-2.2905c0-1.9314 0.49294-1.8959-3.7141 0.0137-5.1697 2.3466-19.235 2.2364-22.117 0.12845-2.7554-2.0148-0.6769-6.2603 4.8585-11.796 5.2041-5.2041 11.834-7.7897 17.042-6.646 4.0751 0.89504 13.894 11.583 14.729 16.031 0.42337 2.2568-0.0244 4.7544-1.4168 7.9021-2.1326 4.8212-4.1483 6.0538-4.1483 2.5366zm255.53-13.302c-2.2342-0.70694-2.6117-2.228-2.8979-4.7663-0.32746-2.9046-0.79935-4.3853-3.8231-5.9776-1.6164-0.85123-2.6737 0.46073-4.0928 1.2202-1.7088 0.91451-2.3227-0.86377-2.8487-3.2616-0.33446-1.5246-1.2015-3.0345-1.3866-3.6524-0.23192-0.77425-0.66724-1.0816-4.3406 0.18702-2.9315 1.0124-8.254 2.9145-9.227 3.0004-1.0509 0.0927-0.14808-1.7397 1.264-4.4705 2.1647-4.1861 7.6853-7.7054 12.622-8.4948 11.473-1.8346 21.695 8.7695 19.616 20.349-0.99481 5.5396-0.15299 7.3644-4.8853 5.867zm-83.529-5.1773c0-8.6098 6.6937-11.859 19.5-9.4649 3.85 0.7197 8.3181 1.2532 9.9291 1.1856 3.6352-0.15251 4.5084 4.43 4.5084 7.4371 0 5.4987-9.5099 6.6327-21.615 4.784-5.0245-0.76735-6.4087-1.8669-8.5232-0.78191-3.7727 1.9358-3.7997 1.9134-3.7997-3.1599z" fill="#36344b"/>
<path d="m371.75 331.34c0.6875-0.27741 1.8125-0.27741 2.5 0s0.125 0.50439-1.25 0.50439-1.9375-0.22698-1.25-0.50439zm-293.33-55.338c0-10.725 0.14712-15.112 0.32692-9.75s0.17981 14.138 0 19.5-0.32692 0.975-0.32692-9.75zm383.58-29.06c-14.076-1.464-27.283-3.9691-67.5-12.804l-50-10.984 30.586-0.0762c16.822-0.0419 48.885-0.37442 71.25-0.73887l40.664-0.66267v27.325l-3.75-0.11999c-2.0625-0.066-11.625-0.93906-21.25-1.9402zm-24.215-128.74c2.155-1.2052 7.0118 1.2832 7.0118 1.2832s-2.464 2.7243-2.7963 3.0566c-0.33229 0.33229-0.35746 3.7811-0.87877 2.8638 0 0-7.2295-5.0266-3.3367-7.2037zm-346.97-62.884c91.112 54.822-88.847-53.459 0 0zm341.73 65.107c0.1583-1.1115 5.8313-3.2802 6.1505-2.4824 0.28887 0.72187-1.4595 2.9019-1.9082 3.0414-3.912 1.2162-2.0194 8.2027-3.0711 7.4181-2.3391-1.7453-1.5247-5.4948-1.1712-7.9771zm4.0112 0.64053c-0.88843-0.68643 5.1572 0.78472 4.7826 1.416-1.5735 2.6513-3.1615 2.6358-2.9774 1.3951 0.36004-2.4269-0.4623-1.7735-1.8052-2.8111z" fill="#a3a0b1"/>
<path d="m375.81 331.32c0.72187-0.28887 1.5844-0.25335 1.9167 0.0789 0.33229 0.33229-0.25834 0.56864-1.3125 0.52522-1.165-0.048-1.4019-0.28494-0.60417-0.60416zm15-1c0.72187-0.28887 1.5844-0.25335 1.9167 0.0789 0.33229 0.33229-0.25834 0.56864-1.3125 0.52522-1.165-0.048-1.4019-0.28494-0.60417-0.60416zm-167.73-10.9c0.048-1.165 0.28494-1.4019 0.60416-0.60417 0.28887 0.72187 0.25335 1.5844-0.0789 1.9167-0.3323 0.33229-0.56864-0.25834-0.52522-1.3125zm186.92-47.438-86.75 0.0214c-47.712 0.0118-104.86 0.0166-127 0.0107l-40.25-0.01078v-50l138.75 0.23933c76.312 0.13163 118.72 0.39337 94.25 0.58165l-44.5 0.34233 50 10.969c42.364 9.2934 52.902 11.262 69 12.89 10.45 1.0569 22.116 1.5144 23.347 1.6466 0.25592 0.0275 0.15306 0.58035 0.15306 11.831v11.5h-21.466l-22.534 0.09174-15.982-0.035zm-331.6-28.979c0-7.975 0.1553-11.238 0.34511-7.25 0.18981 3.9875 0.18981 10.512 0 14.5-0.18981 3.9875-0.34511 0.725-0.34511-7.25z" fill="#bab7cb"/>
</g>
</g>
</svg>
