<svg id="visual" viewBox="0 0 900 599" width="900" height="600" xmlns="http://www.w3.org/2000/svg" xmlns:xlink="http://www.w3.org/1999/xlink" version="1.1"><path d="M0 287L21.5 295.5C43 304 86 321 128.8 342C171.7 363 214.3 388 257.2 404.8C300 421.7 343 430.3 385.8 422.2C428.7 414 471.3 389 514.2 383.3C557 377.7 600 391.3 642.8 378.7C685.7 366 728.3 327 771.2 314C814 301 857 314 878.5 320.5L900 327L900 0L878.5 0C857 0 814 0 771.2 0C728.3 0 685.7 0 642.8 0C600 0 557 0 514.2 0C471.3 0 428.7 0 385.8 0C343 0 300 0 257.2 0C214.3 0 171.7 0 128.8 0C86 0 43 0 21.5 0L0 0Z" fill="#715df2"></path><path d="M0 358L21.5 348.8C43 339.7 86 321.3 128.8 313.8C171.7 306.3 214.3 309.7 257.2 301.3C300 293 343 273 385.8 251.8C428.7 230.7 471.3 208.3 514.2 200.2C557 192 600 198 642.8 200.3C685.7 202.7 728.3 201.3 771.2 196.2C814 191 857 182 878.5 177.5L900 173L900 0L878.5 0C857 0 814 0 771.2 0C728.3 0 685.7 0 642.8 0C600 0 557 0 514.2 0C471.3 0 428.7 0 385.8 0C343 0 300 0 257.2 0C214.3 0 171.7 0 128.8 0C86 0 43 0 21.5 0L0 0Z" fill="#a991f8"></path><path d="M0 169L21.5 171.7C43 174.3 86 179.7 128.8 179.8C171.7 180 214.3 175 257.2 187.3C300 199.7 343 229.3 385.8 243.3C428.7 257.3 471.3 255.7 514.2 241.8C557 228 600 202 642.8 178.7C685.7 155.3 728.3 134.7 771.2 124.5C814 114.3 857 114.7 878.5 114.8L900 115L900 0L878.5 0C857 0 814 0 771.2 0C728.3 0 685.7 0 642.8 0C600 0 557 0 514.2 0C471.3 0 428.7 0 385.8 0C343 0 300 0 257.2 0C214.3 0 171.7 0 128.8 0C86 0 43 0 21.5 0L0 0Z" fill="#d7c7fc"></path><path d="M0 44L21.5 56.3C43 68.7 86 93.3 128.8 99.2C171.7 105 214.3 92 257.2 94.8C300 97.7 343 116.3 385.8 118.3C428.7 120.3 471.3 105.7 514.2 107.3C557 109 600 127 642.8 137.5C685.7 148 728.3 151 771.2 140.8C814 130.7 857 107.3 878.5 95.7L900 84L900 0L878.5 0C857 0 814 0 771.2 0C728.3 0 685.7 0 642.8 0C600 0 557 0 514.2 0C471.3 0 428.7 0 385.8 0C343 0 300 0 257.2 0C214.3 0 171.7 0 128.8 0C86 0 43 0 21.5 0L0 0Z" fill="#ffffff"></path></svg>