<?xml version="1.0" encoding="UTF-8"?>
<svg width="39.76mm" height="9.8834mm" version="1.1" viewBox="0 0 39.76 9.8834" xml:space="preserve" xmlns="http://www.w3.org/2000/svg" xmlns:xlink="http://www.w3.org/1999/xlink"><defs><linearGradient id="b" x1="-111.12" x2="-41.536" y1="-27.472" y2="-27.472" gradientTransform="matrix(1.0286 0 0 1.0286 3.178 .8386)" gradientUnits="userSpaceOnUse"><stop stop-color="#009b81" offset="0"/><stop stop-color="#7ab400" offset="1"/></linearGradient><radialGradient id="a" cx="-75.336" cy="-34.569" r="36.217" gradientTransform="matrix(1 0 0 .11102 0 -30.731)" gradientUnits="userSpaceOnUse"><stop stop-color="#227bbe" offset="0"/><stop stop-color="#185788" stop-opacity=".93224" offset="1"/></radialGradient></defs><g transform="translate(-84.595 -130.59)"><g transform="matrix(.56067 .4321 -.4321 .56067 112.96 31.352)"><g transform="matrix(-.021634 .55408 -.55408 -.021634 131.58 108.82)" stroke="#139e5e" stroke-width="0"><text transform="rotate(230.14 8.892e-7 4.8496e-7)" x="-125.11837" y="-34.683022" fill="#7ab400" font-family="Unispace" font-size="14.38px" stroke="#000000" stroke-linecap="square" stroke-linejoin="bevel" xml:space="preserve"><tspan x="-125.11837" y="-34.683022" stroke-width="0"/></text><text transform="rotate(230.14)" x="-122.17285" y="-29.942108" fill="#00b4b1" font-family="Unispace" font-size="11.061px" stroke="#000000" stroke-linecap="square" stroke-linejoin="bevel" xml:space="preserve"><tspan x="-122.17285" y="-29.942108" stroke-width="0"/></text><ellipse transform="matrix(-.64087 -.76765 .77859 -.62754 1.2111e-6 1.7405e-6)" cx="-138.62" cy="-42.232" rx="1.8119" ry="1.7738" fill="#005db4"/><ellipse transform="matrix(-1.6328 -1.9557 1.9836 -1.5988 -88.293 538.76)" cx="88.262" cy="148.33" rx=".69475" ry=".68013" fill="#005db4"/><ellipse transform="matrix(-1.6328 -1.9557 1.9836 -1.5988 -88.293 538.76)" cx="89.256" cy="150.87" rx=".58189" ry=".56964" fill="#005db4"/><ellipse transform="matrix(-1.6328 -1.9557 1.9836 -1.5988 -88.293 538.76)" cx="91.116" cy="152.5" rx=".51454" ry=".50371" fill="#005db4"/><ellipse transform="matrix(-1.6328 -1.9557 1.9836 -1.5988 -88.293 538.76)" cx="93.056" cy="153" rx=".41994" ry=".4111" fill="#005db4"/><ellipse transform="matrix(-1.6328 -1.9557 1.9836 -1.5988 -88.293 538.76)" cx="94.737" cy="153" rx=".31322" ry=".30663" fill="#005db4"/><ellipse transform="matrix(-1.6328 -1.9557 1.9836 -1.5988 -88.293 538.76)" cx="96.201" cy="152.52" rx=".29866" ry=".29238" fill="#005db4"/><ellipse transform="matrix(-1.6328 -1.9557 1.9836 -1.5988 -88.293 538.76)" cx="97.265" cy="151.91" rx=".27267" ry=".26694" fill="#005db4"/><ellipse transform="matrix(-1.6328 -1.9557 1.9836 -1.5988 -88.293 538.76)" cx="98.033" cy="151.16" rx=".20598" ry=".20165" fill="#005db4"/><g transform="matrix(.41389 -1.7868 1.7877 .43118 -244.35 192.92)" fill="#00b4b1" stroke="#139e5e"><ellipse transform="matrix(1 0 -.017252 .99985 0 0)" cx="74.839" cy="145.3" rx=".71118" ry=".69621"/><ellipse transform="matrix(1 0 -.017252 .99985 0 0)" cx="74.468" cy="148.12" rx=".69475" ry=".68013"/><ellipse transform="matrix(1 0 -.017252 .99985 0 0)" cx="75.461" cy="150.66" rx=".58189" ry=".56964"/><ellipse transform="matrix(1 0 -.017252 .99985 0 0)" cx="77.321" cy="152.29" rx=".51454" ry=".50371"/><ellipse transform="matrix(1 0 -.017252 .99985 0 0)" cx="79.261" cy="152.79" rx=".41994" ry=".4111"/><ellipse transform="matrix(1 0 -.017252 .99985 0 0)" cx="80.942" cy="152.79" rx=".31322" ry=".30663"/><ellipse transform="matrix(1 0 -.017252 .99985 0 0)" cx="82.406" cy="152.31" rx=".29866" ry=".29238"/><ellipse transform="matrix(1 0 -.017252 .99985 0 0)" cx="83.471" cy="151.7" rx=".27267" ry=".26694"/><ellipse transform="matrix(1 0 -.017252 .99985 0 0)" cx="84.238" cy="150.95" rx=".20598" ry=".20165"/></g><ellipse transform="matrix(.79207 -.61044 .59668 .80248 1.2111e-6 1.7405e-6)" cx="-35.477" cy="121.14" rx="1.0047" ry=".98355" fill="#7ab400"/><ellipse transform="matrix(.79207 -.61044 .59668 .80248 1.2111e-6 1.7405e-6)" cx="-35.867" cy="124.97" rx=".98148" ry=".96083" fill="#7ab400"/><ellipse transform="matrix(.79207 -.61044 .59668 .80248 1.2111e-6 1.7405e-6)" cx="-34.463" cy="128.55" rx=".82204" ry=".80474" fill="#7ab400"/><ellipse transform="matrix(.79207 -.61044 .59668 .80248 1.2111e-6 1.7405e-6)" cx="-31.836" cy="130.85" rx=".7269" ry=".7116" fill="#7ab400"/><ellipse transform="matrix(.79207 -.61044 .59668 .80248 1.2111e-6 1.7405e-6)" cx="-29.095" cy="131.56" rx=".59325" ry=".58077" fill="#7ab400"/><ellipse transform="matrix(.79207 -.61044 .59668 .80248 1.2111e-6 1.7405e-6)" cx="-26.721" cy="131.56" rx=".4425" ry=".43318" fill="#7ab400"/><ellipse transform="matrix(.79207 -.61044 .59668 .80248 1.2111e-6 1.7405e-6)" cx="-24.653" cy="130.89" rx=".42192" ry=".41304" fill="#7ab400"/><ellipse transform="matrix(.79207 -.61044 .59668 .80248 1.2111e-6 1.7405e-6)" cx="-23.148" cy="130.02" rx=".38521" ry=".3771" fill="#7ab400"/><ellipse transform="matrix(.79207 -.61044 .59668 .80248 1.2111e-6 1.7405e-6)" cx="-22.064" cy="128.96" rx=".29099" ry=".28487" fill="#7ab400"/><g><rect transform="rotate(230.14 8.892e-7 4.8496e-7)" x="-120.63" y="-34.773" width="3.0212" height=".70358" fill="#7ab400"/><rect transform="rotate(230.14 8.892e-7 4.8496e-7)" x="-117.81" y="-39.45" width="2.0693" height="9.788" fill="#7ab400"/><text transform="matrix(-.61581 -.73763 .79889 -.66696 1.0868e-6 1.4783e-6)" x="-131.27026" y="-28.602518" fill="#00b4b1" font-family="Unispace" font-size="11.452px" stroke="#000000" stroke-linecap="square" stroke-linejoin="bevel" xml:space="preserve"><tspan x="-131.27026" y="-28.602518" fill="#00b4b1" stroke-width="0">S</tspan></text></g><text transform="rotate(230.14)" x="-111.63328" y="-30.548281" fill="url(#a)" fill-opacity=".93333" font-family="Unispace" font-size="9.9525px" stroke="#000000" stroke-linecap="square" stroke-linejoin="bevel" style="font-variant-caps:normal;font-variant-east-asian:normal;font-variant-ligatures:normal;font-variant-numeric:normal" xml:space="preserve"><tspan x="-111.63328" y="-30.548281" fill="url(#a)" fill-opacity=".93333" font-family="Unispace" font-size="9.9525px" stroke-width="0" style="font-variant-caps:normal;font-variant-east-asian:normal;font-variant-ligatures:normal;font-variant-numeric:normal">WEB SERVICES</tspan></text><text transform="rotate(230.14)" x="-111.22376" y="-25.518108" fill="url(#b)" font-family="Unispace" font-size="4.7067px" stroke="#000000" stroke-linecap="square" stroke-linejoin="bevel" style="font-variant-caps:normal;font-variant-east-asian:normal;font-variant-ligatures:normal;font-variant-numeric:normal" xml:space="preserve"><tspan x="-111.22376" y="-25.518108" fill="url(#b)" stroke-width="0">YOUR BRAND IS OUR PASSION</tspan></text></g></g></g></svg>
