<?xml version="1.0" encoding="UTF-8"?>
<!DOCTYPE svg  PUBLIC '-//W3C//DTD SVG 1.1//EN'  'http://www.w3.org/Graphics/SVG/1.1/DTD/svg11.dtd'>
<svg width="256px" height="256px" fill="#000000" stroke="#000000" stroke-width="5.12" version="1.1" viewBox="-51.2 -51.2 614.4 614.4" xml:space="preserve" xmlns="http://www.w3.org/2000/svg">

<g stroke-width="0">

<path transform="translate(-51.2 -51.2) scale(19.2)" d="m16 30.526c2.2849 0.20166 4.2176-1.5561 6.2775-2.5651 2.113-1.035 4.5752-1.6165 6.0319-3.4642 1.477-1.8735 2.2442-4.3803 2.0256-6.756-0.20972-2.2794-1.9784-4.0268-3.196-5.9651-1.0169-1.6187-2.0788-3.1311-3.3913-4.5209-1.4123-1.4956-2.6371-3.3989-4.6164-3.9588-1.9864-0.56187-3.9683 0.82562-6.029 0.94766-2.5801 0.1528-5.3969-1.4221-7.6401-0.13816-2.188 1.2523-3.2334 4.0485-3.5594 6.5484-0.30941 2.3728 0.94139 4.6097 1.8138 6.8378 0.71213 1.8187 1.7165 3.4291 2.8336 5.0312 1.1126 1.5957 2.2436 3.1219 3.7281 4.3791 1.7482 1.4806 3.4396 3.4227 5.7217 3.6241" fill="#c4bdff" strokewidth="0"/>

</g>



 <path d="m305.82 470.49v-71.957h-99.632v55.351l22.141 38.746 77.492 11.07h33.211c-18.342 0-33.212-14.868-33.212-33.21z" fill="#ABECEC"/> <path d="m272.6 470.49v-16.605h-66.422v16.605c0 18.342-14.868 33.211-33.211 33.211h132.84c-18.34-1e-3 -33.21-14.869-33.21-33.211z" fill="#D5F6F5"/> <path d="m474.64 44.281h-33.211l33.211 354.25 33.211-44.281v-276.76c0-18.266-14.945-33.211-33.211-33.211z" fill="#aea3ff"/> <path d="m474.64 77.492c0-18.266-14.945-33.211-33.211-33.211h-404.06c-18.266 0-33.211 14.945-33.211 33.211v276.76l470.49 44.281v-321.04z" fill="#887af0"/> <path d="m474.64 354.25-33.211 66.422h33.211c18.266 0 33.211-14.945 33.211-33.211v-33.211h-33.211z" fill="#ABECEC"/> <polygon points="267.07 97.418 267.07 376.39 322.42 354.25 322.42 119.56" fill="#DFC136"/> <polygon points="256 97.418 233.86 376.39 289.21 376.39 289.21 97.418" fill="#FEDC3D"/> <polygon points="189.58 354.25 189.58 119.56 256 90.378 256 376.39" fill="#FFE777"/> <polygon points="288.29 58.119 247.31 48.432 289.21 119.56 322.42 119.56" fill="#FFDBCC"/> <polygon points="269.45 48.432 223.71 58.119 189.58 119.56 289.21 119.56" fill="#fff"/> <polygon points="288.29 58.119 256 0 256 44.281 272.14 58.119" fill="#272727"/> <polygon points="256 0 223.71 58.119 272.14 58.119" fill="#4D4D4D"/> <path d="m474.64 387.46v-33.211h-470.49v33.211c0 18.266 14.945 33.211 33.211 33.211h404.06c18.266 0 33.211-14.945 33.211-33.211z" fill="#D5F6F5"/> <path d="m405.45 512h-298.9c-4.586 0-8.303-3.716-8.303-8.303 0-4.586 3.716-8.303 8.303-8.303h298.9c4.586 0 8.303 3.716 8.303 8.303s-3.716 8.303-8.302 8.303z" fill="#81E3E2"/> <circle cx="256" cy="387.46" r="8.303" fill="#aea3ff"/> 

</svg>
