<!DOCTYPE svg PUBLIC "-//W3C//DTD SVG 1.1//EN" "http://www.w3.org/Graphics/SVG/1.1/DTD/svg11.dtd">
<!-- Uploaded to: SVG Repo, www.svgrepo.com, Transformed by: SVG Repo Mixer Tools -->
<svg version="1.1" id="Layer_1" xmlns="http://www.w3.org/2000/svg" xmlns:xlink="http://www.w3.org/1999/xlink" viewBox="-46 -46 552.00 552.00" xml:space="preserve" width="800px" height="800px" fill="#000000">
<g id="SVGRepo_bgCarrier" stroke-width="0">
<path transform="translate(-46, -46), scale(17.25)" d="M16,31.384331381569307C18.16642589978494,31.376926850453454,20.36829544381531,31.134470002948575,22.315330175497575,30.184463813514522C24.240770884867175,29.244993879298722,25.85288065271445,27.732877498688268,27.081188289565805,25.977546751550914C28.254412539256425,24.300933713429494,29.094207412991885,22.341139244441884,29.232433074206448,20.299478134893423C29.36255540192471,18.377507252989616,28.14708463503899,16.657356079293358,27.840951773252243,14.755465819054569C27.552141986267863,12.961197416370412,28.21965788218806,11.032822278981381,27.47407353272984,9.375440557176871C26.71806629226969,7.6948894796213825,25.157949074050435,6.530175817011479,23.65872510526693,5.458669231251912C22.165483480436556,4.391438271467867,20.56326232237372,3.298574624172543,18.735604745823938,3.1299915451645717C16.93698600627294,2.9640870075939443,15.36679415995711,4.471541437347617,13.561400706160823,4.5272923372512945C11.295553482602106,4.597262138843309,8.833651306340787,2.2882869295998356,6.914604806465487,3.4950263152833934C5.0587930239474685,4.662002295555693,5.796507496230607,7.660186369265808,5.217005135465886,9.77443501229087C4.759451308223955,11.443768260701805,4.14363441864066,13.018056275720165,3.837453242106749,14.721664824128588C3.5151477654871828,16.514989846207893,3.3121462657874505,18.28555963078731,3.3599859883145182,20.106989513056526C3.418468564774858,22.333631030399875,2.973404855618445,24.778153627314556,4.151240484458709,26.66867098770588C5.320838278442049,28.54596598546212,7.610363852175196,29.40981229409059,9.665420109734574,30.227699380770247C11.681747844636138,31.03017299229491,13.829864885141449,31.391748590247055,16,31.384331381569307" fill="#C4BDFF" strokewidth="0"/>
</g>
<g id="SVGRepo_tracerCarrier" stroke-linecap="round" stroke-linejoin="round"/>
<g id="SVGRepo_iconCarrier"> <g id="XMLID_995_"> <polygon id="XMLID_996_" style="fill:#BEC8D6;" points="210,265.426 200,162.926 420,172.926 410,335.607 "/> <polygon id="XMLID_997_" style="fill:#DAE0E7;" points="210,80.426 200,172.926 420,172.926 410,10.244 "/> <polygon id="XMLID_998_" style="fill:#3897FF;" points="460,172.926 435,162.926 410,172.926 410,335.851 460,335.851 "/> <rect id="XMLID_999_" x="410" y="10" style="fill:#8BC0FF;" width="50" height="162.926"/> <path id="XMLID_1000_" style="fill:#354A67;" d="M115,255.43l20,102.074c0,0,10.125-5.625,22.5-12.5s22.5-26,22.5-42.5V265.43 L115,255.43z"/> <polygon id="XMLID_1001_" style="fill:#3897FF;" points="135,265 135,420 80,430 90,245 "/> <polygon id="XMLID_1002_" style="fill:#8BC0FF;" points="90,245 90,430 45,420 45,265 "/> <polygon id="XMLID_1003_" style="fill:#233145;" points="135,420 135,450 90,450 70,435 90,420 "/> <rect id="XMLID_1004_" x="45" y="420" style="fill:#354A67;" width="45" height="30"/> <polygon id="XMLID_1005_" style="fill:#64CCC5;" points="190,162.93 180,265.43 45,265.43 35,162.93 "/> <polygon id="XMLID_1006_" style="fill:#74e2da;" points="180,80.43 190,172.93 35,172.93 45,80.43 "/> <path id="XMLID_1007_" style="fill:#233145;" d="M22.5,252.5C10.125,245.625,0,226.5,0,210v-37.074l22.5-20l22.5,20V265 C45,265,34.875,259.375,22.5,252.5z"/> <path id="XMLID_1008_" style="fill:#354A67;" d="M22.5,93.351c-12.375,6.875-22.5,26-22.5,42.5v37.074h45V80.851 C45,80.851,34.875,86.476,22.5,93.351z"/> <polygon id="XMLID_1009_" style="fill:#DAE0E7;" points="210,172.93 210,265.43 180,265.43 180,172.93 195,162.93 "/> <rect id="XMLID_1010_" x="180" y="80.43" style="fill:#FFFFFF;" width="30" height="92.5"/> </g> </g>
</svg>