<!DOCTYPE svg PUBLIC "-//W3C//DTD SVG 1.1//EN" "http://www.w3.org/Graphics/SVG/1.1/DTD/svg11.dtd">
<!-- Uploaded to: SVG Repo, www.svgrepo.com, Transformed by: SVG Repo Mixer Tools -->
<svg version="1.1" id="Layer_1" xmlns="http://www.w3.org/2000/svg" xmlns:xlink="http://www.w3.org/1999/xlink" viewBox="-51.2 -51.2 614.40 614.40" xml:space="preserve" width="256px" height="256px" fill="#70b5ff" stroke="#70b5ff">
<g id="SVGRepo_bgCarrier" stroke-width="0">
<path transform="translate(-51.2, -51.2), scale(19.2)" d="M16,30.28619731093446C18.48458652423329,30.29337300435007,20.92454192454737,29.490533440048246,23.001294539620478,28.12659786137722C25.01668341391912,26.80296375562847,26.16256887490237,24.636857023500077,27.576076861021683,22.683451091870666C29.14531381390745,20.514834570421186,31.998507740266405,18.667583570766176,31.776246352742117,16C31.550040552838283,13.285075549303174,28.538350452091716,11.752638206808776,26.513471047956948,9.930044660344723C24.981975123999707,8.551545485657728,22.930682045826284,8.02947990030635,21.39490261115134,6.655754575599882C19.330996032297932,4.809629623549517,18.751885056490934,0.8341931387638122,16.000000000000004,0.5259459316730499C13.365465261351204,0.23084349879468574,12.040352739150173,3.856989079316861,9.859065579871341,5.363589578388632C7.893084270543354,6.721479762264552,4.9683098473727725,6.872051203917326,3.796906954039514,8.954540944968656C2.625503334663642,11.03703197675975,3.8646408946261426,13.610685316260492,3.8760723881423473,15.999999999999998C3.887440200352971,18.376004552540124,2.9333514031825523,20.820513443419177,3.864138162950587,23.006643098468572C4.825815582593212,25.265325340785882,6.916816788117968,26.82344610128193,9.022015011558924,28.08622453443285C11.149715577174707,29.362500733294077,13.518883459841343,30.279031639122707,16,30.28619731093446" fill="#C4BDFF" strokewidth="0"/>
</g>
<g id="SVGRepo_tracerCarrier" stroke-linecap="round" stroke-linejoin="round"/>
<g id="SVGRepo_iconCarrier"> <path d="M383.92,512H128.08c-8.48,0-15.36-6.88-15.36-15.36V15.68c0-8.48,6.88-15.36,15.36-15.36h255.84 c8.48,0,15.36,6.88,15.36,15.36v480.96C399.28,505.12,392.4,512,383.92,512z"/> <rect x="128.08" y="41.28" width="255.84" height="409.36"/> <g> <path style="fill:#1c8bf2;" d="M286.4,25.92h-61.44c-2.8,0-5.12-2.32-5.12-5.12l0,0c0-2.8,2.32-5.12,5.12-5.12h61.44 c2.8,0,5.12,2.32,5.12,5.12l0,0C291.52,23.6,289.28,25.92,286.4,25.92z"/> <path style="fill:#1c8bf2;" d="M286.72,481.28h-61.44c-2.8,0-5.12-2.32-5.12-5.12l0,0c0-2.8,2.32-5.12,5.12-5.12h61.44 c2.8,0,5.12,2.32,5.12,5.12l0,0C291.84,478.96,289.52,481.28,286.72,481.28z"/> </g> <g> <rect x="153.84" y="207.44" style="fill:#1c8bf2;" width="204.64" height="10.24"/> <rect x="153.84" y="360.96" style="fill:#1c8bf2;" width="204.64" height="10.24"/> </g> <rect x="153.84" y="125.52" style="fill:#FFFFFF;" width="51.2" height="51.2"/> <g> <rect x="230.4" y="125.52" style="fill:#1c8bf2;" width="51.2" height="51.2"/> <rect x="307.28" y="125.52" style="fill:#1c8bf2;" width="51.2" height="51.2"/> <rect x="153.84" y="279.04" style="fill:#1c8bf2;" width="51.2" height="51.2"/> </g> <rect x="230.4" y="279.04" style="fill:#FFFFFF;" width="51.2" height="51.2"/> <rect x="307.28" y="279.04" style="fill:#1c8bf2;" width="51.2" height="51.2"/> <path style="opacity:0.2;fill:#FFFFFF;enable-background:new ;" d="M399.28,56.48V15.36C399.28,6.88,392.4,0,383.92,0H128.08 c-8.48,0-15.36,6.88-15.36,15.36v163.92L399.28,56.48z"/> </g>
</svg>